<svg id="Layer_1" data-name="Layer 1" xmlns="http://www.w3.org/2000/svg" viewBox="0 0 866 1728"><defs><style>.cls-1{fill:#fff;}</style></defs><path class="cls-1" d="M860,404.4V129A128.94,128.94,0,0,0,731,0H135A128.94,128.94,0,0,0,6.05,129V236A6.05,6.05,0,0,0,0,242v51.82a6.05,6.05,0,0,0,6.05,6V360a6.05,6.05,0,0,0-6,6.05V477.75a6.05,6.05,0,0,0,6.05,6.05v32.32a6.05,6.05,0,0,0-6,6V633.85a6.05,6.05,0,0,0,6.05,6.06V1599A128.94,128.94,0,0,0,135,1728H731A128.94,128.94,0,0,0,860,1599V595.89a6.05,6.05,0,0,0,6-6.06V410.45A6.05,6.05,0,0,0,860,404.4Z"/></svg>