<svg id="Layer_1" data-name="Layer 1" xmlns="http://www.w3.org/2000/svg" xmlns:xlink="http://www.w3.org/1999/xlink" viewBox="0 0 1600 1223"><defs><style>.cls-1{fill:#fff;}</style></defs><image width="1600" height="1223" xlink:href="../portfolio%202022/vr/iliftvr_4.png"/><path class="cls-1" d="M1597.8,1080.22V77.27a72.75,72.75,0,0,0-72.75-72.75H78.55A72.75,72.75,0,0,0,5.8,77.27V1147.76a72.76,72.76,0,0,0,72.75,72.76H1362a2.48,2.48,0,0,0,2.48,2.48h51.84a2.49,2.49,0,0,0,2.49-2.48h11.59a2.48,2.48,0,0,0,2.48,2.48h51.84a2.49,2.49,0,0,0,2.49-2.48h37.8a72.75,72.75,0,0,0,72.72-71.58h0a2.2,2.2,0,0,0,2.2-2.2v-64.32A2.19,2.19,0,0,0,1597.8,1080.22Z"/></svg>