<?xml version="1.0" encoding="utf-8"?>
<!-- Generator: Adobe Illustrator 24.1.2, SVG Export Plug-In . SVG Version: 6.00 Build 0)  -->
<svg version="1.1" id="Layer_1" xmlns="http://www.w3.org/2000/svg" xmlns:xlink="http://www.w3.org/1999/xlink" x="0px" y="0px"
	 viewBox="0 0 267.5 100" style="enable-background:new 0 0 267.5 100;" xml:space="preserve">
<style type="text/css">
	.st0{fill:#C73C34;}
	.st1{fill:#FFFFFF;}
</style>
<path class="st0" d="M63.3,41.7c0,0-0.1,0.1-0.1,0.1C63.3,41.7,63.3,41.7,63.3,41.7C63.3,41.7,63.3,41.7,63.3,41.7z M61.8,43.7
	c-0.1,0.1-0.1,0.2-0.2,0.3c-0.2,0.3-0.3,0.6-0.4,0.9c-0.5,1.3-0.8,2.7-0.8,4.3c0,0.8,0.1,1.6,0.2,2.4c-0.1-0.8-0.2-1.5-0.2-2.4
	C60.5,47.2,61,45.3,61.8,43.7z M102.1,41.6C102,41.6,102,41.6,102.1,41.6c-1.8,1.8-2.8,4.4-2.9,7.5c-0.1,3.2,0.9,5.8,2.7,7.7
	c0,0,0,0,0,0c0,0,0,0,0,0v0c-1.8-1.9-2.9-4.6-2.8-7.8C99.2,46,100.3,43.4,102.1,41.6z M105,58.9c-0.1-0.1-0.2-0.1-0.3-0.2
	c0,0,0.1,0,0.1,0c0,0,0.1,0,0.1,0c0.1,0.1,0.2,0.1,0.4,0.2c0,0,0.1,0,0.1,0C105.2,59,105.1,59,105,58.9z M109,59.8
	c-0.5,0-1.1-0.1-1.6-0.1C108,59.7,108.5,59.8,109,59.8c0.8,0,1.6,0,2.4-0.2C110.7,59.7,109.9,59.8,109,59.8z M111.9,59.5
	c-0.2,0-0.3,0.1-0.5,0.1C111.6,59.5,111.8,59.5,111.9,59.5C111.9,59.5,111.9,59.5,111.9,59.5C111.9,59.5,111.9,59.5,111.9,59.5z
	 M112.4,59.3c-0.2,0-0.3,0.1-0.5,0.1C112.1,59.4,112.2,59.4,112.4,59.3C112.4,59.3,112.4,59.3,112.4,59.3L112.4,59.3z M112.9,59.2
	c-0.1,0-0.3,0.1-0.5,0.2C112.6,59.3,112.7,59.2,112.9,59.2C112.9,59.2,112.9,59.2,112.9,59.2L112.9,59.2z M115.3,58
	c0.4-0.3,0.8-0.7,1.2-1v0C116.1,57.3,115.7,57.6,115.3,58z M102.1,41.6C102,41.6,102,41.6,102.1,41.6c-1.8,1.8-2.8,4.4-2.9,7.5
	c-0.1,3.2,0.9,5.8,2.7,7.7c0,0,0,0,0,0c0,0,0,0,0,0v0c-1.8-1.9-2.9-4.6-2.8-7.8C99.2,46,100.3,43.4,102.1,41.6z M105,58.9
	c-0.1-0.1-0.2-0.1-0.3-0.2c0,0,0.1,0,0.1,0c0,0,0.1,0,0.1,0c0.1,0.1,0.2,0.1,0.4,0.2c0,0,0.1,0,0.1,0C105.2,59,105.1,59,105,58.9z
	 M109,59.8c-0.5,0-1.1-0.1-1.6-0.1C108,59.7,108.5,59.8,109,59.8c0.8,0,1.6,0,2.4-0.2C110.7,59.7,109.9,59.8,109,59.8z M111.9,59.5
	c-0.2,0-0.3,0.1-0.5,0.1C111.6,59.5,111.8,59.5,111.9,59.5C111.9,59.5,111.9,59.5,111.9,59.5C111.9,59.5,111.9,59.5,111.9,59.5z
	 M112.4,59.3c-0.2,0-0.3,0.1-0.5,0.1C112.1,59.4,112.2,59.4,112.4,59.3C112.4,59.3,112.4,59.3,112.4,59.3L112.4,59.3z M112.9,59.2
	c-0.1,0-0.3,0.1-0.5,0.2C112.6,59.3,112.7,59.2,112.9,59.2C112.9,59.2,112.9,59.2,112.9,59.2L112.9,59.2z M115.3,58
	c0.4-0.3,0.8-0.7,1.2-1v0C116.1,57.3,115.7,57.6,115.3,58z M63.3,41.7c0,0-0.1,0.1-0.1,0.1C63.3,41.7,63.3,41.7,63.3,41.7
	C63.3,41.7,63.3,41.7,63.3,41.7z M61.8,43.7c-0.1,0.1-0.1,0.2-0.2,0.3c-0.2,0.3-0.3,0.6-0.4,0.9c-0.5,1.3-0.8,2.7-0.8,4.3
	c0,0.8,0.1,1.6,0.2,2.4c-0.1-0.8-0.2-1.5-0.2-2.4C60.5,47.2,61,45.3,61.8,43.7z M63.3,41.7c0,0-0.1,0.1-0.1,0.1
	C63.3,41.7,63.3,41.7,63.3,41.7C63.3,41.7,63.3,41.7,63.3,41.7z M61.8,43.7c-0.1,0.1-0.1,0.2-0.2,0.3c-0.2,0.3-0.3,0.6-0.4,0.9
	c-0.5,1.3-0.8,2.7-0.8,4.3c0,0.8,0.1,1.6,0.2,2.4c-0.1-0.8-0.2-1.5-0.2-2.4C60.5,47.2,61,45.3,61.8,43.7z M102.1,41.6
	C102,41.6,102,41.6,102.1,41.6c-1.8,1.8-2.8,4.4-2.9,7.5c-0.1,3.2,0.9,5.8,2.7,7.7c0,0,0,0,0,0c0,0,0,0,0,0v0
	c-1.8-1.9-2.9-4.6-2.8-7.8C99.2,46,100.3,43.4,102.1,41.6z M105,58.9c-0.1-0.1-0.2-0.1-0.3-0.2c0,0,0.1,0,0.1,0c0,0,0.1,0,0.1,0
	c0.1,0.1,0.2,0.1,0.4,0.2c0,0,0.1,0,0.1,0C105.2,59,105.1,59,105,58.9z M109,59.8c-0.5,0-1.1-0.1-1.6-0.1
	C108,59.7,108.5,59.8,109,59.8c0.8,0,1.6,0,2.4-0.2C110.7,59.7,109.9,59.8,109,59.8z M111.9,59.5c-0.2,0-0.3,0.1-0.5,0.1
	C111.6,59.5,111.8,59.5,111.9,59.5C111.9,59.5,111.9,59.5,111.9,59.5C111.9,59.5,111.9,59.5,111.9,59.5z M112.4,59.3
	c-0.2,0-0.3,0.1-0.5,0.1C112.1,59.4,112.2,59.4,112.4,59.3C112.4,59.3,112.4,59.3,112.4,59.3L112.4,59.3z M112.9,59.2
	c-0.1,0-0.3,0.1-0.5,0.2C112.6,59.3,112.7,59.2,112.9,59.2C112.9,59.2,112.9,59.2,112.9,59.2L112.9,59.2z M115.3,58
	c0.4-0.3,0.8-0.7,1.2-1v0C116.1,57.3,115.7,57.6,115.3,58z M190.6,45.6c-0.2,0.1-0.5,0.1-0.7,0.2C190.1,45.7,190.3,45.7,190.6,45.6
	C190.6,45.6,190.6,45.6,190.6,45.6c0.5-0.1,0.9-0.4,1.3-0.8v0C191.5,45.2,191.1,45.4,190.6,45.6z M186.5,46c-1.2,0-1.9,0-2.4-0.1
	c-0.1,0-0.1,0-0.2-0.1c-0.1,0-0.2-0.1-0.2-0.1c0,0,0.1,0,0.1,0.1C184.2,46,185,46,186.5,46c0.8,0.1,1.6,0.1,2.5,0
	C188.1,46,187.3,46,186.5,46z M184.6,38.9c0.1,0,0.3,0,0.4,0c-0.3,0-0.6,0-0.9,0c0,0,0.1,0,0.1,0C184.4,38.9,184.5,38.9,184.6,38.9z
	 M183.2,42.4L183.2,42.4l0,0.3c0,1.5,0,2.4,0.3,2.8c0,0,0.1,0.1,0.2,0.1c-0.5-0.4-0.5-1.2-0.5-2.9V42.4z M183.2,39.5
	C183.2,39.5,183.2,39.5,183.2,39.5c0,0.1-0.1,0.2-0.1,0.3C183.1,39.7,183.1,39.6,183.2,39.5L183.2,39.5z M183,39.8
	c-0.1,0.3-0.1,0.6,0,1C183,40.4,183,40.1,183,39.8L183,39.8z M190.6,45.6c-0.2,0.1-0.5,0.1-0.7,0.2
	C190.1,45.7,190.3,45.7,190.6,45.6C190.6,45.6,190.6,45.6,190.6,45.6c0.5-0.1,0.9-0.4,1.3-0.8v0C191.5,45.2,191.1,45.4,190.6,45.6z
	 M186.5,46c-1.2,0-1.9,0-2.4-0.1c-0.1,0-0.1,0-0.2-0.1c-0.1,0-0.2-0.1-0.2-0.1c0,0,0.1,0,0.1,0.1C184.2,46,185,46,186.5,46
	c0.8,0.1,1.6,0.1,2.5,0C188.1,46,187.3,46,186.5,46z M184.6,38.9c0.1,0,0.3,0,0.4,0c-0.3,0-0.6,0-0.9,0c0,0,0.1,0,0.1,0
	C184.4,38.9,184.5,38.9,184.6,38.9z M183.2,42.4L183.2,42.4l0,0.3c0,1.5,0,2.4,0.3,2.8c0,0,0.1,0.1,0.2,0.1
	c-0.5-0.4-0.5-1.2-0.5-2.9V42.4z M183.2,39.5C183.2,39.5,183.2,39.5,183.2,39.5c0,0.1-0.1,0.2-0.1,0.3
	C183.1,39.7,183.1,39.6,183.2,39.5L183.2,39.5z M183,39.8c-0.1,0.3-0.1,0.6,0,1C183,40.4,183,40.1,183,39.8L183,39.8z M102.1,41.6
	C102,41.6,102,41.6,102.1,41.6c-1.8,1.8-2.8,4.4-2.9,7.5c-0.1,3.2,0.9,5.8,2.7,7.7c0,0,0,0,0,0c0,0,0,0,0,0v0
	c-1.8-1.9-2.9-4.6-2.8-7.8C99.2,46,100.3,43.4,102.1,41.6z M105,58.9c-0.1-0.1-0.2-0.1-0.3-0.2c0,0,0.1,0,0.1,0c0,0,0.1,0,0.1,0
	c0.1,0.1,0.2,0.1,0.4,0.2c0,0,0.1,0,0.1,0C105.2,59,105.1,59,105,58.9z M109,59.8c-0.5,0-1.1-0.1-1.6-0.1
	C108,59.7,108.5,59.8,109,59.8c0.8,0,1.6,0,2.4-0.2C110.7,59.7,109.9,59.8,109,59.8z M111.9,59.5c-0.2,0-0.3,0.1-0.5,0.1
	C111.6,59.5,111.8,59.5,111.9,59.5C111.9,59.5,111.9,59.5,111.9,59.5C111.9,59.5,111.9,59.5,111.9,59.5z M112.4,59.3
	c-0.2,0-0.3,0.1-0.5,0.1C112.1,59.4,112.2,59.4,112.4,59.3C112.4,59.3,112.4,59.3,112.4,59.3L112.4,59.3z M112.9,59.2
	c-0.1,0-0.3,0.1-0.5,0.2C112.6,59.3,112.7,59.2,112.9,59.2C112.9,59.2,112.9,59.2,112.9,59.2L112.9,59.2z M115.3,58
	c0.4-0.3,0.8-0.7,1.2-1v0C116.1,57.3,115.7,57.6,115.3,58z M63.3,41.7c0,0-0.1,0.1-0.1,0.1C63.3,41.7,63.3,41.7,63.3,41.7
	C63.3,41.7,63.3,41.7,63.3,41.7z M61.8,43.7c-0.1,0.1-0.1,0.2-0.2,0.3c-0.2,0.3-0.3,0.6-0.4,0.9c-0.5,1.3-0.8,2.7-0.8,4.3
	c0,0.8,0.1,1.6,0.2,2.4c-0.1-0.8-0.2-1.5-0.2-2.4C60.5,47.2,61,45.3,61.8,43.7z M63.3,41.7c0,0-0.1,0.1-0.1,0.1
	C63.3,41.7,63.3,41.7,63.3,41.7C63.3,41.7,63.3,41.7,63.3,41.7z M61.8,43.7c-0.1,0.1-0.1,0.2-0.2,0.3c-0.2,0.3-0.3,0.6-0.4,0.9
	c-0.5,1.3-0.8,2.7-0.8,4.3c0,0.8,0.1,1.6,0.2,2.4c-0.1-0.8-0.2-1.5-0.2-2.4C60.5,47.2,61,45.3,61.8,43.7z M102.1,41.6
	C102,41.6,102,41.6,102.1,41.6c-1.8,1.8-2.8,4.4-2.9,7.5c-0.1,3.2,0.9,5.8,2.7,7.7c0,0,0,0,0,0c0,0,0,0,0,0v0
	c-1.8-1.9-2.9-4.6-2.8-7.8C99.2,46,100.3,43.4,102.1,41.6z M105,58.9c-0.1-0.1-0.2-0.1-0.3-0.2c0,0,0.1,0,0.1,0c0,0,0.1,0,0.1,0
	c0.1,0.1,0.2,0.1,0.4,0.2c0,0,0.1,0,0.1,0C105.2,59,105.1,59,105,58.9z M109,59.8c-0.5,0-1.1-0.1-1.6-0.1
	C108,59.7,108.5,59.8,109,59.8c0.8,0,1.6,0,2.4-0.2C110.7,59.7,109.9,59.8,109,59.8z M111.9,59.5c-0.2,0-0.3,0.1-0.5,0.1
	C111.6,59.5,111.8,59.5,111.9,59.5C111.9,59.5,111.9,59.5,111.9,59.5C111.9,59.5,111.9,59.5,111.9,59.5z M112.4,59.3
	c-0.2,0-0.3,0.1-0.5,0.1C112.1,59.4,112.2,59.4,112.4,59.3C112.4,59.3,112.4,59.3,112.4,59.3L112.4,59.3z M112.9,59.2
	c-0.1,0-0.3,0.1-0.5,0.2C112.6,59.3,112.7,59.2,112.9,59.2C112.9,59.2,112.9,59.2,112.9,59.2L112.9,59.2z M115.3,58
	c0.4-0.3,0.8-0.7,1.2-1v0C116.1,57.3,115.7,57.6,115.3,58z M190.6,45.6c-0.2,0.1-0.5,0.1-0.7,0.2C190.1,45.7,190.3,45.7,190.6,45.6
	C190.6,45.6,190.6,45.6,190.6,45.6c0.5-0.1,0.9-0.4,1.3-0.8v0C191.5,45.2,191.1,45.4,190.6,45.6z M186.5,46c-1.2,0-1.9,0-2.4-0.1
	c-0.1,0-0.1,0-0.2-0.1c-0.1,0-0.2-0.1-0.2-0.1c0,0,0.1,0,0.1,0.1C184.2,46,185,46,186.5,46c0.8,0.1,1.6,0.1,2.5,0
	C188.1,46,187.3,46,186.5,46z M184.6,38.9c0.1,0,0.3,0,0.4,0c-0.3,0-0.6,0-0.9,0c0,0,0.1,0,0.1,0C184.4,38.9,184.5,38.9,184.6,38.9z
	 M183.2,42.4L183.2,42.4l0,0.3c0,1.5,0,2.4,0.3,2.8c0,0,0.1,0.1,0.2,0.1c-0.5-0.4-0.5-1.2-0.5-2.9V42.4z M183.2,39.5
	C183.2,39.5,183.2,39.5,183.2,39.5c0,0.1-0.1,0.2-0.1,0.3C183.1,39.7,183.1,39.6,183.2,39.5L183.2,39.5z M183,39.8
	c-0.1,0.3-0.1,0.6,0,1C183,40.4,183,40.1,183,39.8L183,39.8z M190.6,45.6c-0.2,0.1-0.5,0.1-0.7,0.2
	C190.1,45.7,190.3,45.7,190.6,45.6C190.6,45.6,190.6,45.6,190.6,45.6c0.5-0.1,0.9-0.4,1.3-0.8v0C191.5,45.2,191.1,45.4,190.6,45.6z
	 M186.5,46c-1.2,0-1.9,0-2.4-0.1c-0.1,0-0.1,0-0.2-0.1c-0.1,0-0.2-0.1-0.2-0.1c0,0,0.1,0,0.1,0.1C184.2,46,185,46,186.5,46
	c0.8,0.1,1.6,0.1,2.5,0C188.1,46,187.3,46,186.5,46z M184.6,38.9c0.1,0,0.3,0,0.4,0c-0.3,0-0.6,0-0.9,0c0,0,0.1,0,0.1,0
	C184.4,38.9,184.5,38.9,184.6,38.9z M183.2,42.4L183.2,42.4l0,0.3c0,1.5,0,2.4,0.3,2.8c0,0,0.1,0.1,0.2,0.1
	c-0.5-0.4-0.5-1.2-0.5-2.9V42.4z M183.2,39.5C183.2,39.5,183.2,39.5,183.2,39.5c0,0.1-0.1,0.2-0.1,0.3
	C183.1,39.7,183.1,39.6,183.2,39.5L183.2,39.5z M183,39.8c-0.1,0.3-0.1,0.6,0,1C183,40.4,183,40.1,183,39.8L183,39.8z M102.1,41.6
	C102,41.6,102,41.6,102.1,41.6c-1.8,1.8-2.8,4.4-2.9,7.5c-0.1,3.2,0.9,5.8,2.7,7.7c0,0,0,0,0,0c0,0,0,0,0,0v0
	c-1.8-1.9-2.9-4.6-2.8-7.8C99.2,46,100.3,43.4,102.1,41.6z M105,58.9c-0.1-0.1-0.2-0.1-0.3-0.2c0,0,0.1,0,0.1,0c0,0,0.1,0,0.1,0
	c0.1,0.1,0.2,0.1,0.4,0.2c0,0,0.1,0,0.1,0C105.2,59,105.1,59,105,58.9z M109,59.8c-0.5,0-1.1-0.1-1.6-0.1
	C108,59.7,108.5,59.8,109,59.8c0.8,0,1.6,0,2.4-0.2C110.7,59.7,109.9,59.8,109,59.8z M111.9,59.5c-0.2,0-0.3,0.1-0.5,0.1
	C111.6,59.5,111.8,59.5,111.9,59.5C111.9,59.5,111.9,59.5,111.9,59.5C111.9,59.5,111.9,59.5,111.9,59.5z M112.4,59.3
	c-0.2,0-0.3,0.1-0.5,0.1C112.1,59.4,112.2,59.4,112.4,59.3C112.4,59.3,112.4,59.3,112.4,59.3L112.4,59.3z M112.9,59.2
	c-0.1,0-0.3,0.1-0.5,0.2C112.6,59.3,112.7,59.2,112.9,59.2C112.9,59.2,112.9,59.2,112.9,59.2L112.9,59.2z M115.3,58
	c0.4-0.3,0.8-0.7,1.2-1v0C116.1,57.3,115.7,57.6,115.3,58z M63.3,41.7c0,0-0.1,0.1-0.1,0.1C63.3,41.7,63.3,41.7,63.3,41.7
	C63.3,41.7,63.3,41.7,63.3,41.7z M61.8,43.7c-0.1,0.1-0.1,0.2-0.2,0.3c-0.2,0.3-0.3,0.6-0.4,0.9c-0.5,1.3-0.8,2.7-0.8,4.3
	c0,0.8,0.1,1.6,0.2,2.4c-0.1-0.8-0.2-1.5-0.2-2.4C60.5,47.2,61,45.3,61.8,43.7z M63.3,41.7c0,0-0.1,0.1-0.1,0.1
	C63.3,41.7,63.3,41.7,63.3,41.7C63.3,41.7,63.3,41.7,63.3,41.7z M61.8,43.7c-0.1,0.1-0.1,0.2-0.2,0.3c-0.2,0.3-0.3,0.6-0.4,0.9
	c-0.5,1.3-0.8,2.7-0.8,4.3c0,0.8,0.1,1.6,0.2,2.4c-0.1-0.8-0.2-1.5-0.2-2.4C60.5,47.2,61,45.3,61.8,43.7z M102.1,41.6
	C102,41.6,102,41.6,102.1,41.6c-1.8,1.8-2.8,4.4-2.9,7.5c-0.1,3.2,0.9,5.8,2.7,7.7c0,0,0,0,0,0c0,0,0,0,0,0v0
	c-1.8-1.9-2.9-4.6-2.8-7.8C99.2,46,100.3,43.4,102.1,41.6z M105,58.9c-0.1-0.1-0.2-0.1-0.3-0.2c0,0,0.1,0,0.1,0c0,0,0.1,0,0.1,0
	c0.1,0.1,0.2,0.1,0.4,0.2c0,0,0.1,0,0.1,0C105.2,59,105.1,59,105,58.9z M109,59.8c-0.5,0-1.1-0.1-1.6-0.1
	C108,59.7,108.5,59.8,109,59.8c0.8,0,1.6,0,2.4-0.2C110.7,59.7,109.9,59.8,109,59.8z M111.9,59.5c-0.2,0-0.3,0.1-0.5,0.1
	C111.6,59.5,111.8,59.5,111.9,59.5C111.9,59.5,111.9,59.5,111.9,59.5C111.9,59.5,111.9,59.5,111.9,59.5z M112.4,59.3
	c-0.2,0-0.3,0.1-0.5,0.1C112.1,59.4,112.2,59.4,112.4,59.3C112.4,59.3,112.4,59.3,112.4,59.3L112.4,59.3z M112.9,59.2
	c-0.1,0-0.3,0.1-0.5,0.2C112.6,59.3,112.7,59.2,112.9,59.2C112.9,59.2,112.9,59.2,112.9,59.2L112.9,59.2z M115.3,58
	c0.4-0.3,0.8-0.7,1.2-1v0C116.1,57.3,115.7,57.6,115.3,58z M190.6,45.6c-0.2,0.1-0.5,0.1-0.7,0.2C190.1,45.7,190.3,45.7,190.6,45.6
	C190.6,45.6,190.6,45.6,190.6,45.6c0.5-0.1,0.9-0.4,1.3-0.8v0C191.5,45.2,191.1,45.4,190.6,45.6z M190.6,39.4c0.2,0,0.4,0.1,0.5,0.2
	c-0.1,0-0.2-0.1-0.3-0.1C190.8,39.5,190.7,39.5,190.6,39.4c-1.3-0.4-2.6-0.5-3.9-0.4c-0.4,0-0.8,0-1.2-0.1c0.4,0,0.8,0.1,1.2,0.1
	C188,38.9,189.3,39,190.6,39.4z M186.5,46c-1.2,0-1.9,0-2.4-0.1c-0.1,0-0.1,0-0.2-0.1c-0.1,0-0.2-0.1-0.2-0.1c0,0,0.1,0,0.1,0.1
	C184.2,46,185,46,186.5,46c0.8,0.1,1.6,0.1,2.5,0C188.1,46,187.3,46,186.5,46z M184,38.9c-0.1,0-0.2,0-0.2,0.1
	c0.1,0,0.2-0.1,0.3-0.1C184.1,38.9,184.1,38.9,184,38.9z M183.8,39c-0.1,0-0.2,0.1-0.2,0.1c0,0-0.1,0-0.1,0.1c0,0,0.1,0,0.1-0.1
	C183.7,39,183.7,39,183.8,39z M183.2,42.4L183.2,42.4l0,0.3c0,1.5,0,2.4,0.3,2.8c0,0,0.1,0.1,0.2,0.1c-0.5-0.4-0.5-1.2-0.5-2.9V42.4
	z M183.5,39.2L183.5,39.2C183.5,39.2,183.5,39.2,183.5,39.2C183.5,39.2,183.5,39.2,183.5,39.2z M183.3,39.3L183.3,39.3
	C183.3,39.3,183.3,39.3,183.3,39.3C183.3,39.3,183.3,39.3,183.3,39.3z M183.3,39.3c-0.1,0.1-0.1,0.2-0.2,0.2c0,0,0,0,0,0
	c0,0.1-0.1,0.2-0.1,0.3c0-0.1,0.1-0.2,0.1-0.3C183.2,39.5,183.3,39.4,183.3,39.3z M183,39.8c-0.1,0.3-0.1,0.6,0,1
	C183,40.4,183,40.1,183,39.8L183,39.8z M193.8,53.8L193.8,53.8c0,0.1,0.1,0.1,0.1,0.2C193.9,53.9,193.8,53.8,193.8,53.8z
	 M194.3,55.3c0-0.3-0.1-0.5-0.2-0.7c-0.1-0.2-0.2-0.4-0.3-0.5c0.1,0.2,0.2,0.3,0.3,0.5C194.2,54.8,194.3,55,194.3,55.3
	c0.1,1-0.2,2-0.9,2.8C194.1,57.3,194.5,56.3,194.3,55.3z M190.8,52.3c-0.4,0-0.8-0.1-1.3-0.1C189.9,52.2,190.4,52.2,190.8,52.3
	c0.1,0,0.3,0.1,0.4,0.1C191,52.3,190.9,52.3,190.8,52.3z M193.8,53.8L193.8,53.8c0,0.1,0.1,0.1,0.1,0.2
	C193.9,53.9,193.8,53.8,193.8,53.8z M194.3,55.3c0-0.3-0.1-0.5-0.2-0.7c-0.1-0.2-0.2-0.4-0.3-0.5c0.1,0.2,0.2,0.3,0.3,0.5
	C194.2,54.8,194.3,55,194.3,55.3c0.1,1-0.2,2-0.9,2.8C194.1,57.3,194.5,56.3,194.3,55.3z M192.7,41.6c0.1,0.3,0.1,0.6,0.1,0.8
	c0,0.9-0.3,1.8-0.9,2.4c0.6-0.6,1-1.5,1-2.4C192.9,42.1,192.8,41.9,192.7,41.6z M189.9,45.8c0.3,0,0.5-0.1,0.7-0.2c0,0,0,0,0,0
	c0.5-0.1,0.9-0.4,1.3-0.8v0c-0.3,0.3-0.8,0.6-1.3,0.8C190.3,45.7,190.1,45.7,189.9,45.8z M186.5,46c-1.2,0-1.9,0-2.4-0.1
	c-0.1,0-0.1,0-0.2-0.1c-0.1,0-0.2-0.1-0.2-0.1c0,0,0.1,0,0.1,0.1C184.2,46,185,46,186.5,46c0.8,0.1,1.6,0.1,2.5,0
	C188.1,46,187.3,46,186.5,46z M184.3,38.9c0.1,0,0.2,0,0.3,0s0.3,0,0.4,0c0.2,0,0.4,0,0.5,0c0.4,0,0.8,0.1,1.2,0.1
	c1.3-0.1,2.6,0,3.9,0.4c0.2,0,0.4,0.1,0.5,0.2c-0.1,0-0.2-0.1-0.3-0.1c-0.1,0-0.1-0.1-0.2-0.1c-1.3-0.4-2.6-0.5-3.9-0.4
	c-0.9,0-1.9-0.3-2.7-0.1c-0.1,0-0.2,0-0.2,0.1c0.1,0,0.2-0.1,0.3-0.1C184.2,38.9,184.2,38.9,184.3,38.9z M183.8,39
	c-0.1,0-0.2,0.1-0.2,0.1c0,0-0.1,0-0.1,0.1c0,0,0.1,0,0.1-0.1C183.7,39,183.7,39,183.8,39z M183.2,42.4L183.2,42.4l0,0.3
	c0,1.5,0,2.4,0.3,2.8c0,0,0.1,0.1,0.2,0.1c-0.5-0.4-0.5-1.2-0.5-2.9V42.4z M183.5,39.2L183.5,39.2C183.5,39.2,183.5,39.2,183.5,39.2
	C183.5,39.2,183.5,39.2,183.5,39.2z M183.3,39.3L183.3,39.3C183.3,39.3,183.3,39.3,183.3,39.3C183.3,39.3,183.3,39.3,183.3,39.3z
	 M183.2,39.5c0-0.1,0.1-0.2,0.2-0.2C183.3,39.4,183.2,39.5,183.2,39.5C183.2,39.5,183.2,39.5,183.2,39.5c-0.1,0.1-0.1,0.2-0.1,0.3
	c-0.1,0.3-0.1,0.6,0,1c0-0.3,0-0.7,0.1-1C183.1,39.7,183.1,39.6,183.2,39.5z M102.1,41.6C102,41.6,102,41.6,102.1,41.6
	c-1.8,1.8-2.8,4.4-2.9,7.5c-0.1,3.2,0.9,5.8,2.7,7.7c0,0,0,0,0,0c0,0,0,0,0,0v0c-1.8-1.9-2.9-4.6-2.8-7.8
	C99.2,46,100.3,43.4,102.1,41.6z M105,58.9c-0.1-0.1-0.2-0.1-0.3-0.2c0,0,0.1,0,0.1,0c0,0,0.1,0,0.1,0c0.1,0.1,0.2,0.1,0.4,0.2
	c0,0,0.1,0,0.1,0C105.2,59,105.1,59,105,58.9z M106.1,39.2c-0.2,0-0.3,0.1-0.5,0.2C105.8,39.3,106,39.2,106.1,39.2
	C106.1,39.2,106.1,39.2,106.1,39.2C106.1,39.2,106.1,39.2,106.1,39.2z M106.6,39c-0.1,0-0.3,0.1-0.5,0.1
	C106.3,39.1,106.5,39.1,106.6,39C106.6,39,106.6,39,106.6,39C106.6,39,106.6,39,106.6,39z M109.5,38.7c-0.8,0-1.7,0.1-2.4,0.2
	c-0.2,0-0.3,0.1-0.5,0.1c0.2,0,0.3-0.1,0.5-0.1C107.9,38.8,108.7,38.7,109.5,38.7L109.5,38.7C109.5,38.7,109.5,38.7,109.5,38.7z
	 M109,59.8c-0.5,0-1.1-0.1-1.6-0.1C108,59.7,108.5,59.8,109,59.8c0.8,0,1.6,0,2.4-0.2C110.7,59.7,109.9,59.8,109,59.8z M111.9,59.5
	c-0.2,0-0.3,0.1-0.5,0.1C111.6,59.5,111.8,59.5,111.9,59.5C111.9,59.5,111.9,59.5,111.9,59.5C111.9,59.5,111.9,59.5,111.9,59.5z
	 M112.4,59.3c-0.2,0-0.3,0.1-0.5,0.1C112.1,59.4,112.2,59.4,112.4,59.3C112.4,59.3,112.4,59.3,112.4,59.3L112.4,59.3z M112.9,59.2
	c-0.1,0-0.3,0.1-0.5,0.2C112.6,59.3,112.7,59.2,112.9,59.2C112.9,59.2,112.9,59.2,112.9,59.2L112.9,59.2z M115.3,58
	c0.4-0.3,0.8-0.7,1.2-1v0C116.1,57.3,115.7,57.6,115.3,58z M118.2,54.5c0.1-0.1,0.1-0.3,0.2-0.4c0,0.1-0.1,0.2-0.1,0.2
	C118.3,54.4,118.2,54.5,118.2,54.5z M118.7,53.4C118.7,53.4,118.7,53.4,118.7,53.4C118.7,53.4,118.7,53.4,118.7,53.4
	c0-0.1,0-0.1,0-0.1C118.7,53.3,118.7,53.4,118.7,53.4z M119.4,49v0.5c0,0.1,0,0.3,0,0.4c0-0.1,0-0.3,0-0.4
	C119.4,49.4,119.4,49.2,119.4,49z M119.2,51.5c0-0.2,0.1-0.4,0.1-0.6c0-0.2,0-0.3,0.1-0.5C119.3,50.8,119.3,51.1,119.2,51.5z
	 M119,52.3C119,52.3,119,52.3,119,52.3c0.1-0.2,0.1-0.4,0.1-0.6c0-0.1,0-0.2,0-0.2c0,0.2-0.1,0.3-0.1,0.5
	C119.1,52.1,119.1,52.2,119,52.3z M116.5,56.9c0.5-0.4,0.9-0.9,1.2-1.5C117.3,56,116.9,56.5,116.5,56.9z M68,39
	c-0.2,0-0.3,0.1-0.5,0.1C67.7,39.1,67.8,39.1,68,39c0.8-0.2,1.7-0.3,2.7-0.3v0C69.7,38.7,68.8,38.8,68,39z M67.5,39.2
	c-0.2,0-0.3,0.1-0.5,0.2C67.2,39.3,67.3,39.2,67.5,39.2C67.5,39.2,67.5,39.2,67.5,39.2C67.5,39.2,67.5,39.2,67.5,39.2z M63.7,41.3
	c0.4-0.4,0.8-0.7,1.3-1C64.5,40.6,64.1,40.9,63.7,41.3z M63.3,41.7c0,0-0.1,0.1-0.1,0.1C63.3,41.7,63.3,41.7,63.3,41.7
	C63.3,41.7,63.3,41.7,63.3,41.7z M61.8,43.7c-0.1,0.1-0.1,0.2-0.2,0.3c-0.2,0.3-0.3,0.6-0.4,0.9c-0.5,1.3-0.8,2.7-0.8,4.3
	c0,0.8,0.1,1.6,0.2,2.4c-0.1-0.8-0.2-1.5-0.2-2.4C60.5,47.2,61,45.3,61.8,43.7z M190.8,52.3c-0.4,0-0.8-0.1-1.3-0.1
	C189.9,52.2,190.4,52.2,190.8,52.3c0.1,0,0.3,0.1,0.4,0.1C191,52.3,190.9,52.3,190.8,52.3z M193.8,53.8L193.8,53.8
	c0,0.1,0.1,0.1,0.1,0.2C193.9,53.9,193.8,53.8,193.8,53.8z M194.3,55.3c0-0.3-0.1-0.5-0.2-0.7c-0.1-0.2-0.2-0.4-0.3-0.5
	c0.1,0.2,0.2,0.3,0.3,0.5C194.2,54.8,194.3,55,194.3,55.3c0.1,1-0.2,2-0.9,2.8C194.1,57.3,194.5,56.3,194.3,55.3z M192.7,41.6
	c0.1,0.3,0.1,0.6,0.1,0.8c0,0.9-0.3,1.8-0.9,2.4c0.6-0.6,1-1.5,1-2.4C192.9,42.1,192.8,41.9,192.7,41.6z M189.9,45.8
	c0.3,0,0.5-0.1,0.7-0.2c0,0,0,0,0,0c0.5-0.1,0.9-0.4,1.3-0.8v0c-0.3,0.3-0.8,0.6-1.3,0.8C190.3,45.7,190.1,45.7,189.9,45.8z
	 M186.5,46c-1.2,0-1.9,0-2.4-0.1c-0.1,0-0.1,0-0.2-0.1c-0.1,0-0.2-0.1-0.2-0.1c0,0,0.1,0,0.1,0.1C184.2,46,185,46,186.5,46
	c0.8,0.1,1.6,0.1,2.5,0C188.1,46,187.3,46,186.5,46z M184.3,38.9c0.1,0,0.2,0,0.3,0s0.3,0,0.4,0c0.2,0,0.4,0,0.5,0
	c0.4,0,0.8,0.1,1.2,0.1c1.3-0.1,2.6,0,3.9,0.4c0.2,0,0.4,0.1,0.5,0.2c-0.1,0-0.2-0.1-0.3-0.1c-0.1,0-0.1-0.1-0.2-0.1
	c-1.3-0.4-2.6-0.5-3.9-0.4c-0.9,0-1.9-0.3-2.7-0.1c-0.1,0-0.2,0-0.2,0.1c0.1,0,0.2-0.1,0.3-0.1C184.2,38.9,184.2,38.9,184.3,38.9z
	 M183.8,39c-0.1,0-0.2,0.1-0.2,0.1c0,0-0.1,0-0.1,0.1c0,0,0.1,0,0.1-0.1C183.7,39,183.7,39,183.8,39z M183.2,42.4L183.2,42.4l0,0.3
	c0,1.5,0,2.4,0.3,2.8c0,0,0.1,0.1,0.2,0.1c-0.5-0.4-0.5-1.2-0.5-2.9V42.4z M183.5,39.2L183.5,39.2C183.5,39.2,183.5,39.2,183.5,39.2
	C183.5,39.2,183.5,39.2,183.5,39.2z M183.3,39.3L183.3,39.3C183.3,39.3,183.3,39.3,183.3,39.3C183.3,39.3,183.3,39.3,183.3,39.3z
	 M183.2,39.5c0-0.1,0.1-0.2,0.2-0.2C183.3,39.4,183.2,39.5,183.2,39.5C183.2,39.5,183.2,39.5,183.2,39.5c-0.1,0.1-0.1,0.2-0.1,0.3
	c-0.1,0.3-0.1,0.6,0,1c0-0.3,0-0.7,0.1-1C183.1,39.7,183.1,39.6,183.2,39.5z M102.1,41.6C102,41.6,102,41.6,102.1,41.6
	c-1.8,1.8-2.8,4.4-2.9,7.5c-0.1,3.2,0.9,5.8,2.7,7.7c0,0,0,0,0,0c0,0,0,0,0,0v0c-1.8-1.9-2.9-4.6-2.8-7.8
	C99.2,46,100.3,43.4,102.1,41.6z M105,58.9c-0.1-0.1-0.2-0.1-0.3-0.2c0,0,0.1,0,0.1,0c0,0,0.1,0,0.1,0c0.1,0.1,0.2,0.1,0.4,0.2
	c0,0,0.1,0,0.1,0C105.2,59,105.1,59,105,58.9z M106.1,39.2c-0.2,0-0.3,0.1-0.5,0.2C105.8,39.3,106,39.2,106.1,39.2
	C106.1,39.2,106.1,39.2,106.1,39.2C106.1,39.2,106.1,39.2,106.1,39.2z M106.6,39c-0.1,0-0.3,0.1-0.5,0.1
	C106.3,39.1,106.5,39.1,106.6,39C106.6,39,106.6,39,106.6,39C106.6,39,106.6,39,106.6,39z M109.5,38.7c-0.8,0-1.7,0.1-2.4,0.2
	c-0.2,0-0.3,0.1-0.5,0.1c0.2,0,0.3-0.1,0.5-0.1C107.9,38.8,108.7,38.7,109.5,38.7L109.5,38.7C109.5,38.7,109.5,38.7,109.5,38.7z
	 M109,59.8c-0.5,0-1.1-0.1-1.6-0.1C108,59.7,108.5,59.8,109,59.8c0.8,0,1.6,0,2.4-0.2C110.7,59.7,109.9,59.8,109,59.8z M111.9,59.5
	c-0.2,0-0.3,0.1-0.5,0.1C111.6,59.5,111.8,59.5,111.9,59.5C111.9,59.5,111.9,59.5,111.9,59.5C111.9,59.5,111.9,59.5,111.9,59.5z
	 M112.4,59.3c-0.2,0-0.3,0.1-0.5,0.1C112.1,59.4,112.2,59.4,112.4,59.3C112.4,59.3,112.4,59.3,112.4,59.3L112.4,59.3z M112.9,59.2
	c-0.1,0-0.3,0.1-0.5,0.2C112.6,59.3,112.7,59.2,112.9,59.2C112.9,59.2,112.9,59.2,112.9,59.2L112.9,59.2z M115.3,58
	c0.4-0.3,0.8-0.7,1.2-1v0C116.1,57.3,115.7,57.6,115.3,58z M118.2,54.5c0.1-0.1,0.1-0.3,0.2-0.4c0,0.1-0.1,0.2-0.1,0.2
	C118.3,54.4,118.2,54.5,118.2,54.5z M118.7,53.4C118.7,53.4,118.7,53.4,118.7,53.4C118.7,53.4,118.7,53.4,118.7,53.4
	c0-0.1,0-0.1,0-0.1C118.7,53.3,118.7,53.4,118.7,53.4z M119.4,49v0.5c0,0.1,0,0.3,0,0.4c0-0.1,0-0.3,0-0.4
	C119.4,49.4,119.4,49.2,119.4,49z M119.2,51.5c0-0.2,0.1-0.4,0.1-0.6c0-0.2,0-0.3,0.1-0.5C119.3,50.8,119.3,51.1,119.2,51.5z
	 M119,52.3C119,52.3,119,52.3,119,52.3c0.1-0.2,0.1-0.4,0.1-0.6c0-0.1,0-0.2,0-0.2c0,0.2-0.1,0.3-0.1,0.5
	C119.1,52.1,119.1,52.2,119,52.3z M116.5,56.9c0.5-0.4,0.9-0.9,1.2-1.5C117.3,56,116.9,56.5,116.5,56.9z M68,39
	c-0.2,0-0.3,0.1-0.5,0.1C67.7,39.1,67.8,39.1,68,39c0.8-0.2,1.7-0.3,2.7-0.3v0C69.7,38.7,68.8,38.8,68,39z M67.5,39.2
	c-0.2,0-0.3,0.1-0.5,0.2C67.2,39.3,67.3,39.2,67.5,39.2C67.5,39.2,67.5,39.2,67.5,39.2C67.5,39.2,67.5,39.2,67.5,39.2z M63.7,41.3
	c0.4-0.4,0.8-0.7,1.3-1C64.5,40.6,64.1,40.9,63.7,41.3z M63.3,41.7c0,0-0.1,0.1-0.1,0.1C63.3,41.7,63.3,41.7,63.3,41.7
	C63.3,41.7,63.3,41.7,63.3,41.7z M61.8,43.7c-0.1,0.1-0.1,0.2-0.2,0.3c-0.2,0.3-0.3,0.6-0.4,0.9c-0.5,1.3-0.8,2.7-0.8,4.3
	c0,0.8,0.1,1.6,0.2,2.4c-0.1-0.8-0.2-1.5-0.2-2.4C60.5,47.2,61,45.3,61.8,43.7z M68,39L68,39c0.8-0.2,1.7-0.3,2.7-0.3v0
	C69.7,38.7,68.8,38.8,68,39z M67.5,39.2L67.5,39.2C67.5,39.2,67.5,39.2,67.5,39.2C67.5,39.2,67.5,39.2,67.5,39.2z M105,58.9
	c0.1,0,0.2,0.1,0.2,0.1c0,0,0.1,0,0.1,0C105.2,59,105.1,59,105,58.9z M106.1,39.2L106.1,39.2C106.1,39.2,106.1,39.2,106.1,39.2
	C106.1,39.2,106.1,39.2,106.1,39.2z M106.6,39L106.6,39C106.6,39,106.6,39,106.6,39C106.6,39,106.6,39,106.6,39z M109.5,38.7
	c-0.8,0-1.7,0.1-2.4,0.2v0C107.9,38.8,108.7,38.7,109.5,38.7L109.5,38.7C109.5,38.7,109.5,38.7,109.5,38.7z M111.4,59.6
	c0.2,0,0.3-0.1,0.5-0.1v0C111.8,59.5,111.6,59.5,111.4,59.6z M111.9,59.5c0.2,0,0.3-0.1,0.5-0.1v0C112.2,59.4,112.1,59.4,111.9,59.5
	z M112.4,59.3c0.2,0,0.3-0.1,0.5-0.1v0C112.7,59.2,112.6,59.3,112.4,59.3z M115.3,58c0.4-0.3,0.8-0.7,1.2-1v0
	C116.1,57.3,115.7,57.6,115.3,58z M118.2,54.5c0.1-0.1,0.1-0.3,0.2-0.4c0,0.1-0.1,0.2-0.1,0.2C118.3,54.4,118.2,54.5,118.2,54.5z
	 M118.7,53.4C118.7,53.4,118.7,53.4,118.7,53.4C118.7,53.4,118.7,53.4,118.7,53.4c0-0.1,0-0.1,0-0.1
	C118.7,53.3,118.7,53.4,118.7,53.4z M119.2,51.5c0-0.2,0.1-0.4,0.1-0.6c0-0.2,0-0.3,0.1-0.5C119.3,50.8,119.3,51.1,119.2,51.5z
	 M119,52.3C119,52.3,119,52.3,119,52.3c0.1-0.2,0.1-0.4,0.1-0.6c0-0.1,0-0.2,0-0.2c0,0.2-0.1,0.3-0.1,0.5
	C119.1,52.1,119.1,52.2,119,52.3z M119.4,49v0.5c0,0.1,0,0.3,0,0.4c0-0.1,0-0.3,0-0.4C119.4,49.4,119.4,49.2,119.4,49z M116.5,56.9
	c0.5-0.4,0.9-0.9,1.2-1.5C117.3,56,116.9,56.5,116.5,56.9z M192.7,41.6c0.1,0.3,0.1,0.6,0.1,0.8c0,0.9-0.3,1.8-0.9,2.4
	c0.6-0.6,1-1.5,1-2.4C192.9,42.1,192.8,41.9,192.7,41.6z M190.6,45.6c0.5-0.1,0.9-0.4,1.3-0.8v0C191.5,45.2,191.1,45.4,190.6,45.6
	C190.6,45.6,190.6,45.6,190.6,45.6z M191.1,39.6c-0.1,0-0.2-0.1-0.3-0.1c-0.1,0-0.1-0.1-0.2-0.1c-1.3-0.4-2.6-0.5-3.9-0.4
	c-0.9,0-1.9-0.3-2.7-0.1c-0.1,0-0.2,0-0.2,0.1c0.1,0,0.2-0.1,0.3-0.1c0,0,0.1,0,0.1,0c0.1,0,0.2,0,0.3,0s0.3,0,0.4,0
	c0.2,0,0.4,0,0.5,0c0.4,0,0.8,0.1,1.2,0.1c1.3-0.1,2.6,0,3.9,0.4C190.8,39.5,191,39.6,191.1,39.6z M190.6,45.6L190.6,45.6
	c-0.2,0.1-0.5,0.1-0.7,0.2C190.1,45.7,190.3,45.7,190.6,45.6z M183.6,39.1c0.1,0,0.1-0.1,0.2-0.1C183.7,39,183.7,39,183.6,39.1
	L183.6,39.1z M183.5,39.2C183.5,39.2,183.5,39.2,183.5,39.2C183.5,39.2,183.5,39.2,183.5,39.2L183.5,39.2z M190.8,52.3
	c-0.4,0-0.8-0.1-1.3-0.1C189.9,52.2,190.4,52.2,190.8,52.3c0.1,0,0.3,0.1,0.4,0.1C191,52.3,190.9,52.3,190.8,52.3z M193.8,53.8
	L193.8,53.8c0,0.1,0.1,0.1,0.1,0.2C193.9,53.9,193.8,53.8,193.8,53.8z M190.8,52.3c-0.4,0-0.8-0.1-1.3-0.1
	C189.9,52.2,190.4,52.2,190.8,52.3c0.1,0,0.3,0.1,0.4,0.1C191,52.3,190.9,52.3,190.8,52.3z M193.8,53.8L193.8,53.8
	c0,0.1,0.1,0.1,0.1,0.2C193.9,53.9,193.8,53.8,193.8,53.8z M186.7,39c-0.4,0-0.8,0-1.2-0.1C186,39,186.4,39,186.7,39
	c1.3-0.1,2.6,0,3.9,0.4v0C189.3,39,188,38.9,186.7,39z M183.8,39c0.1,0,0.2-0.1,0.3-0.1c0,0-0.1,0-0.1,0C184,38.9,183.9,39,183.8,39
	z M183.7,45.7c0,0,0.1,0,0.2,0.1C183.8,45.7,183.7,45.7,183.7,45.7C183.7,45.7,183.7,45.7,183.7,45.7z M183.2,42.4L183.2,42.4l0,0.3
	c0,1.5,0,2.4,0.3,2.8c0,0,0.1,0.1,0.2,0.1c-0.5-0.4-0.5-1.2-0.5-2.9V42.4z M183.5,39.2c0,0,0.1,0,0.1-0.1c0.1,0,0.1-0.1,0.2-0.1
	c-0.1,0-0.2,0.1-0.2,0.1C183.6,39.1,183.5,39.1,183.5,39.2z M183.5,39.2C183.5,39.2,183.5,39.2,183.5,39.2
	C183.5,39.2,183.5,39.2,183.5,39.2L183.5,39.2z M183.3,39.3L183.3,39.3C183.3,39.3,183.3,39.3,183.3,39.3
	C183.3,39.3,183.3,39.3,183.3,39.3z M183.2,39.5c0-0.1,0.1-0.2,0.2-0.2C183.3,39.4,183.2,39.5,183.2,39.5
	C183.2,39.5,183.2,39.5,183.2,39.5c-0.1,0.1-0.1,0.2-0.1,0.3c-0.1,0.3-0.1,0.6,0,1c0-0.3,0-0.7,0.1-1
	C183.1,39.7,183.1,39.6,183.2,39.5z M102.1,41.6C102,41.6,102,41.6,102.1,41.6c-1.8,1.8-2.8,4.4-2.9,7.5c-0.1,3.2,0.9,5.8,2.7,7.7
	c0,0,0,0,0,0c0,0,0,0,0,0c-1.8-1.9-2.9-4.6-2.8-7.8C99.2,46,100.3,43.4,102.1,41.6z M106.1,39.2c-0.2,0-0.3,0.1-0.5,0.2
	C105.8,39.3,106,39.2,106.1,39.2C106.1,39.2,106.1,39.2,106.1,39.2C106.1,39.2,106.1,39.2,106.1,39.2z M106.6,39
	c-0.1,0-0.3,0.1-0.5,0.1C106.3,39.1,106.5,39.1,106.6,39C106.6,39,106.6,39,106.6,39C106.6,39,106.6,39,106.6,39z M107.1,38.9
	c-0.2,0-0.3,0.1-0.5,0.1C106.8,39,106.9,39,107.1,38.9c0.8-0.1,1.6-0.2,2.4-0.2v0C108.7,38.7,107.9,38.8,107.1,38.9z M68,39
	c-0.2,0-0.3,0.1-0.5,0.1C67.7,39.1,67.8,39.1,68,39c0.8-0.2,1.7-0.3,2.7-0.3v0C69.7,38.7,68.8,38.8,68,39z M67.5,39.2
	c-0.2,0-0.3,0.1-0.5,0.2C67.2,39.3,67.3,39.2,67.5,39.2C67.5,39.2,67.5,39.2,67.5,39.2C67.5,39.2,67.5,39.2,67.5,39.2z M63.7,41.3
	c0.4-0.4,0.8-0.7,1.3-1C64.5,40.6,64.1,40.9,63.7,41.3z M63.3,41.7c0,0-0.1,0.1-0.1,0.1C63.3,41.7,63.3,41.7,63.3,41.7
	C63.3,41.7,63.3,41.7,63.3,41.7z M61.8,43.7c-0.1,0.1-0.1,0.2-0.2,0.3c-0.2,0.3-0.3,0.6-0.4,0.9c-0.5,1.3-0.8,2.7-0.8,4.3
	c0,0.8,0.1,1.6,0.2,2.4c-0.1-0.8-0.2-1.5-0.2-2.4C60.5,47.2,61,45.3,61.8,43.7z M68,39c-0.2,0-0.3,0.1-0.5,0.1
	C67.7,39.1,67.8,39.1,68,39c0.8-0.2,1.7-0.3,2.7-0.3v0C69.7,38.7,68.8,38.8,68,39z M67.5,39.2c-0.2,0-0.3,0.1-0.5,0.2
	C67.2,39.3,67.3,39.2,67.5,39.2C67.5,39.2,67.5,39.2,67.5,39.2C67.5,39.2,67.5,39.2,67.5,39.2z M63.7,41.3c0.4-0.4,0.8-0.7,1.3-1
	C64.5,40.6,64.1,40.9,63.7,41.3z M63.3,41.7c0,0-0.1,0.1-0.1,0.1C63.3,41.7,63.3,41.7,63.3,41.7C63.3,41.7,63.3,41.7,63.3,41.7z
	 M61.8,43.7c-0.1,0.1-0.1,0.2-0.2,0.3c-0.2,0.3-0.3,0.6-0.4,0.9c-0.5,1.3-0.8,2.7-0.8,4.3c0,0.8,0.1,1.6,0.2,2.4
	c-0.1-0.8-0.2-1.5-0.2-2.4C60.5,47.2,61,45.3,61.8,43.7z M102.1,41.6C102,41.6,102,41.6,102.1,41.6c-1.8,1.8-2.8,4.4-2.9,7.5
	c-0.1,3.2,0.9,5.8,2.7,7.7c0,0,0,0,0,0c0,0,0,0,0,0c-1.8-1.9-2.9-4.6-2.8-7.8C99.2,46,100.3,43.4,102.1,41.6z M106.1,39.2
	c-0.2,0-0.3,0.1-0.5,0.2C105.8,39.3,106,39.2,106.1,39.2C106.1,39.2,106.1,39.2,106.1,39.2C106.1,39.2,106.1,39.2,106.1,39.2z
	 M106.6,39c-0.1,0-0.3,0.1-0.5,0.1C106.3,39.1,106.5,39.1,106.6,39C106.6,39,106.6,39,106.6,39C106.6,39,106.6,39,106.6,39z
	 M107.1,38.9c-0.2,0-0.3,0.1-0.5,0.1C106.8,39,106.9,39,107.1,38.9c0.8-0.1,1.6-0.2,2.4-0.2v0C108.7,38.7,107.9,38.8,107.1,38.9z
	 M186.7,39c-0.4,0-0.8,0-1.2-0.1C186,39,186.4,39,186.7,39c1.3-0.1,2.6,0,3.9,0.4v0C189.3,39,188,38.9,186.7,39z M183.8,39
	c0.1,0,0.2-0.1,0.3-0.1c0,0-0.1,0-0.1,0C184,38.9,183.9,39,183.8,39z M183.7,45.7c0,0,0.1,0,0.2,0.1
	C183.8,45.7,183.7,45.7,183.7,45.7C183.7,45.7,183.7,45.7,183.7,45.7z M183.2,42.4L183.2,42.4l0,0.3c0,1.5,0,2.4,0.3,2.8
	c0,0,0.1,0.1,0.2,0.1c-0.5-0.4-0.5-1.2-0.5-2.9V42.4z M183.5,39.2c0,0,0.1,0,0.1-0.1c0.1,0,0.1-0.1,0.2-0.1c-0.1,0-0.2,0.1-0.2,0.1
	C183.6,39.1,183.5,39.1,183.5,39.2z M183.5,39.2C183.5,39.2,183.5,39.2,183.5,39.2C183.5,39.2,183.5,39.2,183.5,39.2L183.5,39.2z
	 M183.3,39.3L183.3,39.3C183.3,39.3,183.3,39.3,183.3,39.3C183.3,39.3,183.3,39.3,183.3,39.3z M183.2,39.5c0-0.1,0.1-0.2,0.2-0.2
	C183.3,39.4,183.2,39.5,183.2,39.5C183.2,39.5,183.2,39.5,183.2,39.5c-0.1,0.1-0.1,0.2-0.1,0.3c-0.1,0.3-0.1,0.6,0,1
	c0-0.3,0-0.7,0.1-1C183.1,39.7,183.1,39.6,183.2,39.5z M190.8,52.3c-0.4,0-0.8-0.1-1.3-0.1C189.9,52.2,190.4,52.2,190.8,52.3
	c0.1,0,0.3,0.1,0.4,0.1C191,52.3,190.9,52.3,190.8,52.3z M193.8,53.8L193.8,53.8c0,0.1,0.1,0.1,0.1,0.2
	C193.9,53.9,193.8,53.8,193.8,53.8z M190.8,52.3c-0.4,0-0.8-0.1-1.3-0.1C189.9,52.2,190.4,52.2,190.8,52.3c0.1,0,0.3,0.1,0.4,0.1
	C191,52.3,190.9,52.3,190.8,52.3z M193.8,53.8L193.8,53.8c0,0.1,0.1,0.1,0.1,0.2C193.9,53.9,193.8,53.8,193.8,53.8z M186.7,39
	c-0.4,0-0.8,0-1.2-0.1C186,39,186.4,39,186.7,39c1.3-0.1,2.6,0,3.9,0.4v0C189.3,39,188,38.9,186.7,39z M183.8,39
	c0.1,0,0.2-0.1,0.3-0.1c0,0-0.1,0-0.1,0C184,38.9,183.9,39,183.8,39z M183.7,45.7c0,0,0.1,0,0.2,0.1
	C183.8,45.7,183.7,45.7,183.7,45.7C183.7,45.7,183.7,45.7,183.7,45.7z M183.2,42.4L183.2,42.4l0,0.3c0,1.5,0,2.4,0.3,2.8
	c0,0,0.1,0.1,0.2,0.1c-0.5-0.4-0.5-1.2-0.5-2.9V42.4z M183.5,39.2c0,0,0.1,0,0.1-0.1c0.1,0,0.1-0.1,0.2-0.1c-0.1,0-0.2,0.1-0.2,0.1
	C183.6,39.1,183.5,39.1,183.5,39.2z M183.5,39.2C183.5,39.2,183.5,39.2,183.5,39.2C183.5,39.2,183.5,39.2,183.5,39.2L183.5,39.2z
	 M183.3,39.3L183.3,39.3C183.3,39.3,183.3,39.3,183.3,39.3C183.3,39.3,183.3,39.3,183.3,39.3z M183.2,39.5c0-0.1,0.1-0.2,0.2-0.2
	C183.3,39.4,183.2,39.5,183.2,39.5C183.2,39.5,183.2,39.5,183.2,39.5c-0.1,0.1-0.1,0.2-0.1,0.3c-0.1,0.3-0.1,0.6,0,1
	c0-0.3,0-0.7,0.1-1C183.1,39.7,183.1,39.6,183.2,39.5z M102.1,41.6C102,41.6,102,41.6,102.1,41.6c-1.8,1.8-2.8,4.4-2.9,7.5
	c-0.1,3.2,0.9,5.8,2.7,7.7c0,0,0,0,0,0c0,0,0,0,0,0c-1.8-1.9-2.9-4.6-2.8-7.8C99.2,46,100.3,43.4,102.1,41.6z M106.1,39.2
	c-0.2,0-0.3,0.1-0.5,0.2C105.8,39.3,106,39.2,106.1,39.2C106.1,39.2,106.1,39.2,106.1,39.2C106.1,39.2,106.1,39.2,106.1,39.2z
	 M106.6,39c-0.1,0-0.3,0.1-0.5,0.1C106.3,39.1,106.5,39.1,106.6,39C106.6,39,106.6,39,106.6,39C106.6,39,106.6,39,106.6,39z
	 M107.1,38.9c-0.2,0-0.3,0.1-0.5,0.1C106.8,39,106.9,39,107.1,38.9c0.8-0.1,1.6-0.2,2.4-0.2v0C108.7,38.7,107.9,38.8,107.1,38.9z
	 M68,39c-0.2,0-0.3,0.1-0.5,0.1C67.7,39.1,67.8,39.1,68,39c0.8-0.2,1.7-0.3,2.7-0.3v0C69.7,38.7,68.8,38.8,68,39z M67.5,39.2
	c-0.2,0-0.3,0.1-0.5,0.2C67.2,39.3,67.3,39.2,67.5,39.2C67.5,39.2,67.5,39.2,67.5,39.2C67.5,39.2,67.5,39.2,67.5,39.2z M63.7,41.3
	c0.4-0.4,0.8-0.7,1.3-1C64.5,40.6,64.1,40.9,63.7,41.3z M63.3,41.7c0,0-0.1,0.1-0.1,0.1C63.3,41.7,63.3,41.7,63.3,41.7
	C63.3,41.7,63.3,41.7,63.3,41.7z M61.8,43.7c-0.1,0.1-0.1,0.2-0.2,0.3c-0.2,0.3-0.3,0.6-0.4,0.9c-0.5,1.3-0.8,2.7-0.8,4.3
	c0,0.8,0.1,1.6,0.2,2.4c-0.1-0.8-0.2-1.5-0.2-2.4C60.5,47.2,61,45.3,61.8,43.7z M68,39c-0.2,0-0.3,0.1-0.5,0.1
	C67.7,39.1,67.8,39.1,68,39c0.8-0.2,1.7-0.3,2.7-0.3v0C69.7,38.7,68.8,38.8,68,39z M67.5,39.2c-0.2,0-0.3,0.1-0.5,0.2
	C67.2,39.3,67.3,39.2,67.5,39.2C67.5,39.2,67.5,39.2,67.5,39.2C67.5,39.2,67.5,39.2,67.5,39.2z M63.7,41.3c0.4-0.4,0.8-0.7,1.3-1
	C64.5,40.6,64.1,40.9,63.7,41.3z M63.3,41.7c0,0-0.1,0.1-0.1,0.1C63.3,41.7,63.3,41.7,63.3,41.7C63.3,41.7,63.3,41.7,63.3,41.7z
	 M61.8,43.7c-0.1,0.1-0.1,0.2-0.2,0.3c-0.2,0.3-0.3,0.6-0.4,0.9c-0.5,1.3-0.8,2.7-0.8,4.3c0,0.8,0.1,1.6,0.2,2.4
	c-0.1-0.8-0.2-1.5-0.2-2.4C60.5,47.2,61,45.3,61.8,43.7z M102.1,41.6C102,41.6,102,41.6,102.1,41.6c-1.8,1.8-2.8,4.4-2.9,7.5
	c-0.1,3.2,0.9,5.8,2.7,7.7c0,0,0,0,0,0c0,0,0,0,0,0c-1.8-1.9-2.9-4.6-2.8-7.8C99.2,46,100.3,43.4,102.1,41.6z M106.1,39.2
	c-0.2,0-0.3,0.1-0.5,0.2C105.8,39.3,106,39.2,106.1,39.2C106.1,39.2,106.1,39.2,106.1,39.2C106.1,39.2,106.1,39.2,106.1,39.2z
	 M106.6,39c-0.1,0-0.3,0.1-0.5,0.1C106.3,39.1,106.5,39.1,106.6,39C106.6,39,106.6,39,106.6,39C106.6,39,106.6,39,106.6,39z
	 M107.1,38.9c-0.2,0-0.3,0.1-0.5,0.1C106.8,39,106.9,39,107.1,38.9c0.8-0.1,1.6-0.2,2.4-0.2v0C108.7,38.7,107.9,38.8,107.1,38.9z
	 M102.1,41.6C102,41.6,102,41.6,102.1,41.6c-1.8,1.8-2.8,4.4-2.9,7.5c-0.1,3.2,0.9,5.8,2.7,7.7c0,0,0,0,0,0c0,0,0,0,0,0
	c-1.8-1.9-2.9-4.6-2.8-7.8C99.2,46,100.3,43.4,102.1,41.6z M106.1,39.2c-0.2,0-0.3,0.1-0.5,0.2C105.8,39.3,106,39.2,106.1,39.2
	C106.1,39.2,106.1,39.2,106.1,39.2C106.1,39.2,106.1,39.2,106.1,39.2z M106.6,39c-0.1,0-0.3,0.1-0.5,0.1
	C106.3,39.1,106.5,39.1,106.6,39C106.6,39,106.6,39,106.6,39C106.6,39,106.6,39,106.6,39z M107.1,38.9c-0.2,0-0.3,0.1-0.5,0.1
	C106.8,39,106.9,39,107.1,38.9c0.8-0.1,1.6-0.2,2.4-0.2v0C108.7,38.7,107.9,38.8,107.1,38.9z M68,39c-0.2,0-0.3,0.1-0.5,0.1
	C67.7,39.1,67.8,39.1,68,39c0.8-0.2,1.7-0.3,2.7-0.3v0C69.7,38.7,68.8,38.8,68,39z M67.5,39.2c-0.2,0-0.3,0.1-0.5,0.2
	C67.2,39.3,67.3,39.2,67.5,39.2C67.5,39.2,67.5,39.2,67.5,39.2C67.5,39.2,67.5,39.2,67.5,39.2z M63.7,41.3c0.4-0.4,0.8-0.7,1.3-1
	C64.5,40.6,64.1,40.9,63.7,41.3z M63.3,41.7c0,0-0.1,0.1-0.1,0.1C63.3,41.7,63.3,41.7,63.3,41.7C63.3,41.7,63.3,41.7,63.3,41.7z
	 M61.8,43.7c-0.1,0.1-0.1,0.2-0.2,0.3c-0.2,0.3-0.3,0.6-0.4,0.9c-0.5,1.3-0.8,2.7-0.8,4.3c0,0.8,0.1,1.6,0.2,2.4
	c-0.1-0.8-0.2-1.5-0.2-2.4C60.5,47.2,61,45.3,61.8,43.7z M68,39c-0.2,0-0.3,0.1-0.5,0.1C67.7,39.1,67.8,39.1,68,39
	c0.8-0.2,1.7-0.3,2.7-0.3v0C69.7,38.7,68.8,38.8,68,39z M67.5,39.2c-0.2,0-0.3,0.1-0.5,0.2C67.2,39.3,67.3,39.2,67.5,39.2
	C67.5,39.2,67.5,39.2,67.5,39.2C67.5,39.2,67.5,39.2,67.5,39.2z M63.7,41.3c0.4-0.4,0.8-0.7,1.3-1C64.5,40.6,64.1,40.9,63.7,41.3z
	 M63.3,41.7c0,0-0.1,0.1-0.1,0.1C63.3,41.7,63.3,41.7,63.3,41.7C63.3,41.7,63.3,41.7,63.3,41.7z M61.8,43.7
	c-0.1,0.1-0.1,0.2-0.2,0.3c-0.2,0.3-0.3,0.6-0.4,0.9c-0.5,1.3-0.8,2.7-0.8,4.3c0,0.8,0.1,1.6,0.2,2.4c-0.1-0.8-0.2-1.5-0.2-2.4
	C60.5,47.2,61,45.3,61.8,43.7z M68,39c-0.2,0-0.3,0.1-0.5,0.1C67.7,39.1,67.8,39.1,68,39c0.8-0.2,1.7-0.3,2.7-0.3v0
	C69.7,38.7,68.8,38.8,68,39z M67.5,39.2c-0.2,0-0.3,0.1-0.5,0.2C67.2,39.3,67.3,39.2,67.5,39.2C67.5,39.2,67.5,39.2,67.5,39.2
	C67.5,39.2,67.5,39.2,67.5,39.2z M63.7,41.3c0.4-0.4,0.8-0.7,1.3-1C64.5,40.6,64.1,40.9,63.7,41.3z M63.3,41.7c0,0-0.1,0.1-0.1,0.1
	C63.3,41.7,63.3,41.7,63.3,41.7C63.3,41.7,63.3,41.7,63.3,41.7z M61.8,43.7c-0.1,0.1-0.1,0.2-0.2,0.3c-0.2,0.3-0.3,0.6-0.4,0.9
	c-0.5,1.3-0.8,2.7-0.8,4.3c0,0.8,0.1,1.6,0.2,2.4c-0.1-0.8-0.2-1.5-0.2-2.4C60.5,47.2,61,45.3,61.8,43.7z"/>
<path class="st0" d="M0,0v100h267.5V0H0z M46.3,63.4c-2.3,1.4-5,2.1-7.7,2.1c-4.3,0.1-8.6,0-12.9,0.1c-0.9,0-1.1-0.3-1.1-1.1V34
	c0-0.7,0.1-1.1,1-1.1c4.8,0.1,9.7-0.2,14.5,0.2c1,0.1,2,0.3,2.9,0.6c3.5,1.1,5.4,3.4,5.6,6.9c0.2,3.5-1.3,5.9-4.6,7.4l-0.8,0.4
	l1.2,0.4c3,0.7,5.3,3.3,5.6,6.5C50.6,58.5,49.1,61.8,46.3,63.4z M68.3,66.2L68.3,66.2c-8.1-0.9-13.3-5.5-14.8-12.9
	c-1.9-9.5,2.5-18.7,13-20.8c3.4-0.7,7-0.5,10.3,0.5c7.2,2.3,11.4,8.3,11.3,16.3C88.2,60.2,79.8,67.5,68.3,66.2z M126.8,49.1
	c0.1,11.1-8.4,18.4-19.9,17.1c-8.1-0.9-13.4-5.6-14.8-13.1c-2.3-12.6,6.1-22.3,19.5-20.9c7.9,0.8,13.1,5.4,14.8,12.5
	C126.6,46.2,126.8,47.6,126.8,49.1L126.8,49.1z M168.9,64.5c0,0.9-0.3,1.1-1.2,1.1c-1.6,0-3.1-0.1-4.7,0c-1,0-1.3-0.2-1.3-1.3V41.2
	l-0.3,0c-0.8,2.2-1.5,4.5-2.3,6.7c-1.9,5.5-3.8,11-5.6,16.5c-0.3,0.9-0.7,1.3-1.7,1.2c-1.4-0.1-3.1,0.5-4-0.3
	c-0.9-0.8-1-2.4-1.4-3.7c-2.1-6.4-4.2-12.8-6.3-19.2c-0.1-0.5-0.4-0.9-0.7-1.2v22.9c0,1.1-0.3,1.5-1.4,1.5c-1.5-0.1-3-0.1-4.6,0
	c-0.8,0-1.1-0.2-1.1-1.1V34.1c0-1,0.4-1.1,1.2-1.1c2.8,0,5.6,0.1,8.4,0c0.8-0.1,1.5,0.4,1.7,1.2c2.1,6.2,4.3,12.3,6.5,18.5
	c0.1,0.5,0.3,0.9,0.7,1.3c0.3-0.4,0.6-1,0.7-1.5c2.2-6.1,4.3-12.2,6.5-18.3c0.1-0.7,0.8-1.2,1.6-1.1c2.8,0.1,5.7,0.1,8.5,0
	c0.9,0,1.1,0.3,1.1,1.1C168.8,44.2,168.9,54.3,168.9,64.5L168.9,64.5z M197.4,63.7L197.4,63.7c-2.2,1.2-4.7,1.9-7.3,1.9
	c-4.4,0.1-8.7,0-13.1,0.1c-0.8,0-1.1-0.3-1-1.1V34c0-0.7,0.2-1,0.9-1c4.9,0.1,9.8-0.3,14.7,0.3c0.9,0.1,1.9,0.3,2.8,0.6
	c3.4,1.1,5.2,3.4,5.4,6.7c0.4,3.3-1.5,6.4-4.6,7.6l-0.9,0.4c3.5,0.8,5.9,2.5,6.8,5.9C202.3,58,200.7,61.9,197.4,63.7z M213.2,64.6
	c0,0.8-0.3,1-1.1,1c-1.6,0-3.2-0.1-4.8,0c-1,0-1.2-0.3-1.2-1.3v-30c0-1,0.2-1.4,1.3-1.4c1.6,0.1,3.1,0,4.7,0c0.8,0,1.2,0.2,1.2,1.1
	C213.2,44.2,213.2,54.4,213.2,64.6L213.2,64.6z M243,38.3c0,0.8-0.3,1.1-1,1.1h-6.9c-1,0-1.3,0.4-1.3,1.4v23.6c0,1-0.3,1.4-1.3,1.3
	c-1.5-0.1-3-0.1-4.6,0c-1,0.1-1.3-0.3-1.3-1.3V41.7c0-2.7,0.4-2.3-2.3-2.4h-5.8c-0.8,0-1.2-0.2-1.2-1.1c0.1-1.4,0-2.9,0-4.3
	c0-0.7,0.3-1,1-1h23.8c0.8,0,1,0.3,0.9,1C243,35.4,243,36.8,243,38.3z"/>
<path class="st0" d="M39.3,45.5c-2.3,0.8-4.7,0.3-7.1,0.4c-0.5,0-0.5-0.4-0.5-0.8v-2.7c0-3.5,0-3.5,3.5-3.5c1.4-0.1,2.7,0.1,4,0.4
	c1.3,0.3,2.3,1.5,2.2,2.9C41.6,43.8,40.7,45.1,39.3,45.5z"/>
<path class="st1" d="M50,55.3c-0.3-3.1-2.6-5.7-5.6-6.5l-1.2-0.4L44,48c3.3-1.6,4.8-4,4.6-7.4c-0.2-3.5-2.1-5.8-5.6-6.9
	c-1-0.3-1.9-0.5-2.9-0.6c-4.8-0.4-9.6-0.1-14.5-0.2c-0.9,0-1,0.4-1,1.1v30.4c0,0.8,0.2,1.1,1.1,1.1c4.3-0.1,8.6,0,12.9-0.1
	c2.7,0,5.4-0.7,7.7-2.1C49.1,61.8,50.6,58.5,50,55.3z M31.7,42.5c0-3.5,0-3.5,3.5-3.5c1.4-0.1,2.7,0.1,4,0.4
	c1.3,0.3,2.3,1.5,2.2,2.9c0.2,1.5-0.7,2.8-2.1,3.3c-2.3,0.8-4.7,0.3-7.1,0.4c-0.5,0-0.5-0.4-0.5-0.8V42.5z M39.3,59.4
	c-1.2,0.1-2.4,0.2-3.5,0.1h-3c-0.9,0-1.1-0.2-1.1-1V53c0-0.6,0.1-1,0.9-1c2.3-0.1,4.5,0,6.8,0.2c2.4,0.4,3.6,1.5,3.6,3.4
	C42.9,57.7,41.6,59,39.3,59.4z"/>
<path class="st0" d="M42.9,55.7c0,2-1.3,3.3-3.6,3.7c-1.2,0.1-2.4,0.2-3.5,0.1h-3c-0.9,0-1.1-0.2-1.1-1V53c0-0.6,0.1-1,0.9-1
	c2.3-0.1,4.5,0,6.8,0.2C41.7,52.6,42.9,53.8,42.9,55.7z"/>
<path class="st0" d="M80.7,49.3c0,6.2-4.1,10.5-10.1,10.5c-1.7,0-3.3-0.3-4.6-1c-0.9-0.4-1.7-1-2.4-1.6c-0.1-0.1-0.2-0.2-0.3-0.3
	c0,0,0,0,0,0c-0.1-0.1-0.2-0.2-0.2-0.3l0,0c-0.1-0.1-0.1-0.1-0.2-0.2c-0.2-0.2-0.4-0.5-0.5-0.7c0,0,0-0.1-0.1-0.1
	c-0.1-0.2-0.3-0.4-0.4-0.7c-0.1-0.2-0.2-0.4-0.3-0.7c-0.1-0.2-0.2-0.4-0.3-0.6c-0.1-0.1-0.1-0.3-0.2-0.4c-0.1-0.3-0.2-0.7-0.3-1.1
	c0-0.2-0.1-0.4-0.1-0.5c-0.1-0.8-0.2-1.5-0.2-2.4c0-2.1,0.5-4,1.3-5.5c0,0,0-0.1,0-0.1c0.1-0.2,0.2-0.4,0.4-0.6
	c0.1-0.2,0.2-0.3,0.3-0.5c0.1-0.1,0.2-0.2,0.3-0.3c0.1-0.1,0.2-0.2,0.3-0.3c0,0,0.1-0.1,0.1-0.1c0-0.1,0.1-0.1,0.1-0.1
	c0.1-0.1,0.3-0.3,0.4-0.4c0.4-0.4,0.8-0.7,1.3-1c0.5-0.3,1-0.5,1.5-0.8c0.2-0.1,0.3-0.1,0.5-0.2c0.1,0,0.3-0.1,0.5-0.1c0,0,0,0,0,0
	c0.2,0,0.3-0.1,0.5-0.1c0.8-0.2,1.7-0.3,2.7-0.3v0C76.6,38.8,80.7,43.1,80.7,49.3z"/>
<path class="st1" d="M76.8,33.1c-3.3-1-6.9-1.2-10.3-0.5c-10.5,2.1-14.9,11.4-13,20.8c1.5,7.3,6.8,12,14.8,12.9h0
	c11.5,1.3,19.8-6,19.8-16.9C88.2,41.4,84,35.3,76.8,33.1z M70.6,59.8c-1.7,0-3.3-0.3-4.6-1c-0.9-0.4-1.7-1-2.4-1.6
	c-0.1-0.1-0.2-0.2-0.3-0.3c0,0,0,0,0,0c-0.1-0.1-0.2-0.2-0.2-0.3l0,0c-0.1-0.1-0.1-0.1-0.2-0.2c-0.2-0.2-0.4-0.5-0.5-0.7
	c0,0,0-0.1-0.1-0.1c-0.1-0.2-0.3-0.4-0.4-0.7c-0.1-0.2-0.2-0.4-0.3-0.7c-0.1-0.2-0.2-0.4-0.3-0.6c-0.1-0.1-0.1-0.3-0.2-0.4
	c-0.1-0.3-0.2-0.7-0.3-1.1c0-0.2-0.1-0.4-0.1-0.5c-0.1-0.8-0.2-1.5-0.2-2.4c0-2.1,0.5-4,1.3-5.5c0,0,0-0.1,0-0.1
	c0.1-0.2,0.2-0.4,0.4-0.6c0.1-0.2,0.2-0.3,0.3-0.5c0.1-0.1,0.2-0.2,0.3-0.3c0.1-0.1,0.2-0.2,0.3-0.3c0,0,0.1-0.1,0.1-0.1
	c0-0.1,0.1-0.1,0.1-0.1c0.1-0.1,0.3-0.3,0.4-0.4c0.4-0.4,0.8-0.7,1.3-1c0.5-0.3,1-0.5,1.5-0.8c0.2-0.1,0.3-0.1,0.5-0.2
	c0.1,0,0.3-0.1,0.5-0.1c0,0,0,0,0,0c0.2,0,0.3-0.1,0.5-0.1c0.8-0.2,1.7-0.3,2.7-0.3v0c5.9,0.1,10.1,4.4,10.1,10.5
	S76.6,59.7,70.6,59.8z"/>
<path class="st0" d="M119.4,49.6c0,3-1.1,5.5-2.9,7.3c-0.4,0.4-0.8,0.7-1.2,1c0,0,0,0,0,0c-0.3,0.2-0.6,0.4-0.9,0.6c0,0,0,0,0,0
	c-0.3,0.2-0.6,0.3-1,0.5c0,0,0,0,0,0c-0.2,0.1-0.3,0.1-0.5,0.2h0c-0.1,0-0.3,0.1-0.5,0.2c0,0,0,0,0,0h0c-0.2,0-0.3,0.1-0.5,0.1
	c0,0,0,0,0,0c-0.2,0-0.3,0.1-0.5,0.1c-0.8,0.1-1.6,0.2-2.4,0.2c-1.1,0-2.1-0.2-3-0.5c0,0,0,0,0,0c0,0,0,0,0,0
	c-0.2-0.1-0.4-0.1-0.6-0.2c-0.1,0-0.2-0.1-0.4-0.1c-0.1-0.1-0.2-0.1-0.3-0.2c0,0-0.1,0-0.1,0c-0.1,0-0.2-0.1-0.2-0.1
	c-0.1-0.1-0.2-0.1-0.3-0.2s-0.2-0.1-0.3-0.2c0,0-0.1-0.1-0.1-0.1c-0.1,0-0.1-0.1-0.2-0.1c0,0,0,0,0,0c0,0-0.1-0.1-0.1-0.1
	c0,0-0.1,0-0.1-0.1c0,0,0,0-0.1,0c-0.1-0.1-0.3-0.2-0.4-0.3c-0.1-0.1-0.3-0.2-0.4-0.3c-0.1-0.1-0.2-0.1-0.2-0.2
	c-1.8-1.9-2.9-4.6-2.8-7.8c0.1-3.1,1.1-5.7,2.9-7.5c0.7-0.7,1.4-1.3,2.3-1.7c0.3-0.1,0.5-0.3,0.8-0.4c0.2-0.1,0.3-0.1,0.5-0.2
	c0.2,0,0.3-0.1,0.5-0.1c0,0,0,0,0,0c0.1,0,0.3-0.1,0.5-0.1c0,0,0,0,0,0c0.2,0,0.3-0.1,0.5-0.1c0.8-0.1,1.6-0.2,2.4-0.2
	c1.9,0,3.6,0.5,5,1.3c0.2,0.1,0.5,0.3,0.7,0.4c0.1,0.1,0.3,0.2,0.4,0.3c0.3,0.2,0.5,0.4,0.7,0.6c0.1,0.1,0.2,0.2,0.3,0.3
	c0,0,0,0,0,0c0.2,0.2,0.4,0.5,0.6,0.7c0.2,0.3,0.4,0.5,0.5,0.8c0.3,0.4,0.5,0.9,0.7,1.3C119.1,46.1,119.4,47.7,119.4,49.6z"/>
<path class="st1" d="M126.3,44.8c-1.7-7.1-6.8-11.7-14.8-12.5c-13.4-1.4-21.8,8.3-19.5,20.9c1.4,7.4,6.7,12.1,14.8,13.1
	c11.5,1.3,20-6,19.9-17.1h0C126.8,47.6,126.6,46.2,126.3,44.8z M115.3,58C115.3,58,115.3,57.9,115.3,58c-0.3,0.2-0.6,0.4-0.9,0.6
	c0,0,0,0,0,0c-0.3,0.2-0.6,0.3-1,0.5c0,0,0,0,0,0c-0.2,0.1-0.3,0.1-0.5,0.2h0c-0.1,0-0.3,0.1-0.5,0.2c0,0,0,0,0,0h0
	c-0.2,0-0.3,0.1-0.5,0.1c0,0,0,0,0,0c-0.2,0-0.3,0.1-0.5,0.1c-0.8,0.1-1.6,0.2-2.4,0.2c-1.1,0-2.1-0.2-3-0.5c0,0,0,0,0,0
	c0,0,0,0,0,0c-0.2-0.1-0.4-0.1-0.6-0.2c-0.1,0-0.2-0.1-0.4-0.1c-0.1-0.1-0.2-0.1-0.3-0.2c0,0-0.1,0-0.1,0c-0.1,0-0.2-0.1-0.2-0.1
	c-0.1-0.1-0.2-0.1-0.3-0.2s-0.2-0.1-0.3-0.2c0,0-0.1-0.1-0.1-0.1c-0.1,0-0.1-0.1-0.2-0.1c0,0,0,0,0,0c0,0-0.1-0.1-0.1-0.1
	c0,0-0.1,0-0.1-0.1c0,0,0,0-0.1,0c-0.1-0.1-0.3-0.2-0.4-0.3c-0.2-0.1-0.3-0.3-0.5-0.5c0,0-0.1-0.1-0.1-0.1c-1.8-1.9-2.9-4.6-2.8-7.8
	c0.1-3.1,1.1-5.7,2.9-7.5c0.7-0.7,1.4-1.3,2.3-1.7c0.3-0.1,0.5-0.3,0.8-0.4c0.2-0.1,0.3-0.1,0.5-0.2c0.2,0,0.3-0.1,0.5-0.1
	c0,0,0,0,0,0c0.1,0,0.3-0.1,0.5-0.1c0,0,0,0,0,0c0.2,0,0.3-0.1,0.5-0.1c0.8-0.1,1.6-0.2,2.4-0.2c1.9,0,3.6,0.5,5,1.3
	c0.2,0.1,0.5,0.3,0.7,0.4c0.1,0.1,0.3,0.2,0.4,0.3c0.2,0.2,0.5,0.4,0.7,0.6c0.1,0.1,0.2,0.2,0.3,0.3c0,0,0,0,0,0
	c0.2,0.2,0.4,0.5,0.6,0.7c0.2,0.3,0.4,0.5,0.5,0.8c0.3,0.4,0.5,0.9,0.7,1.3c0.6,1.5,0.9,3.1,0.9,5c0,3-1.1,5.5-2.9,7.3
	C116.1,57.3,115.7,57.6,115.3,58z"/>
<path class="st1" d="M168.8,34.1c0,10.1,0,20.3,0,30.4h0c0,0.9-0.3,1.1-1.2,1.1c-1.6,0-3.1-0.1-4.7,0c-1,0-1.3-0.2-1.3-1.3V41.2
	l-0.3,0c-0.8,2.2-1.5,4.5-2.3,6.7c-1.9,5.5-3.8,11-5.6,16.5c-0.3,0.9-0.7,1.3-1.7,1.2c-1.4-0.1-3.1,0.5-4-0.3
	c-0.9-0.8-1-2.4-1.4-3.7c-2.1-6.4-4.2-12.8-6.3-19.2c-0.1-0.5-0.4-0.9-0.7-1.2v22.9c0,1.1-0.3,1.5-1.4,1.5c-1.5-0.1-3-0.1-4.6,0
	c-0.8,0-1.1-0.2-1.1-1.1V34.1c0-1,0.4-1.1,1.2-1.1c2.8,0,5.6,0.1,8.4,0c0.8-0.1,1.5,0.4,1.7,1.2c2.1,6.2,4.3,12.3,6.5,18.5
	c0.1,0.5,0.3,0.9,0.7,1.3c0.3-0.4,0.6-1,0.7-1.5c2.2-6.1,4.3-12.2,6.5-18.3c0.1-0.7,0.8-1.2,1.6-1.1c2.8,0.1,5.7,0.1,8.5,0
	C168.6,32.9,168.8,33.2,168.8,34.1z"/>
<path class="st0" d="M193.5,58c-0.1,0.1-0.2,0.2-0.3,0.3c-0.2,0.2-0.5,0.4-0.8,0.6c-0.2,0.1-0.4,0.2-0.6,0.3
	c-0.2,0.1-0.4,0.1-0.7,0.1c-1.3,0.2-2.6,0.3-4,0.2H184c-0.7,0-0.9-0.3-0.9-0.9v-5.6c0-0.6,0.2-0.9,0.9-0.9c1.8-0.1,3.7,0,5.5,0.1
	c0.4,0,0.8,0.1,1.3,0.1c0.1,0,0.3,0,0.4,0.1c0,0,0,0,0.1,0c0.1,0,0.3,0.1,0.4,0.1c0.1,0,0.3,0.1,0.4,0.1c0.3,0.1,0.5,0.2,0.8,0.4
	c0.2,0.1,0.4,0.3,0.6,0.5c0.1,0.1,0.1,0.1,0.2,0.2c0.1,0.1,0.1,0.1,0.1,0.2c0,0,0,0,0,0c0,0,0,0,0,0c0,0.1,0.1,0.1,0.1,0.2
	c0.1,0.2,0.2,0.3,0.3,0.5c0.1,0.2,0.1,0.5,0.2,0.7C194.4,56.3,194.1,57.3,193.5,58z"/>
<path class="st1" d="M201.3,54.4c-0.9-3.4-3.3-5.1-6.8-5.9l0.9-0.4c3.1-1.2,5-4.3,4.6-7.6c-0.2-3.3-2-5.6-5.4-6.7
	c-0.9-0.3-1.9-0.5-2.8-0.6c-4.9-0.5-9.8-0.1-14.7-0.3c-0.8,0-0.9,0.3-0.9,1v30.5c-0.1,0.8,0.2,1.1,1,1.1c4.3-0.1,8.7,0,13.1-0.1
	c2.5,0,5-0.6,7.3-1.9h0C200.7,61.9,202.3,58,201.3,54.4z M183,40.8c0-0.3,0-0.7,0.1-1c0-0.1,0.1-0.2,0.1-0.3c0-0.1,0.1-0.2,0.2-0.2
	c0,0,0,0,0,0c0,0,0.1-0.1,0.1-0.1c0,0,0,0,0,0c0,0,0.1,0,0.1-0.1c0.1,0,0.1-0.1,0.2-0.1c0.1,0,0.2-0.1,0.3-0.1c0,0,0.1,0,0.1,0
	c0.1,0,0.2,0,0.3,0s0.3,0,0.4,0c0.2,0,0.4,0,0.5,0c0.4,0,0.8,0.1,1.2,0.1c1.3-0.1,2.6,0,3.9,0.4c0.2,0,0.4,0.1,0.5,0.2
	c0.1,0,0.2,0.1,0.2,0.1c0.1,0,0.2,0.1,0.2,0.1c0.1,0.1,0.2,0.2,0.3,0.2c0.1,0.1,0.1,0.1,0.2,0.2c0,0,0.1,0.1,0.1,0.1v0
	c0,0.1,0.1,0.1,0.1,0.2v0c0,0.1,0.1,0.1,0.1,0.2v0c0,0.1,0.1,0.1,0.1,0.2c0,0,0,0,0,0v0c0,0.1,0.1,0.1,0.1,0.2c0,0,0,0,0,0
	c0,0.1,0.1,0.2,0.1,0.2c0.1,0.3,0.1,0.6,0.1,0.8c0,0.9-0.3,1.8-0.9,2.4c-0.3,0.3-0.8,0.6-1.3,0.8c-0.2,0.1-0.5,0.1-0.7,0.2
	c-0.2,0-0.3,0.1-0.5,0.1c-0.1,0-0.3,0.1-0.4,0.1c-0.8,0.1-1.6,0.1-2.5,0c-1.2,0-1.9,0-2.4-0.1c-0.1,0-0.1,0-0.2-0.1
	c-0.1,0-0.2-0.1-0.2-0.1h0c-0.5-0.4-0.5-1.2-0.5-2.9v-0.3l0,0c0-0.3,0-0.8-0.1-1.2C183,41.1,183,40.9,183,40.8z M193.2,58.3
	c-0.2,0.2-0.5,0.4-0.8,0.6c-0.2,0.1-0.4,0.2-0.6,0.3c-0.2,0.1-0.4,0.1-0.7,0.1c-1.3,0.2-2.6,0.3-4,0.2H184c-0.7,0-0.9-0.3-0.9-0.9
	v-5.6c0-0.6,0.2-0.9,0.9-0.9c1.8-0.1,3.7,0,5.5,0.1c0.4,0,0.8,0.1,1.3,0.1c0.1,0,0.3,0,0.4,0.1c0,0,0,0,0.1,0c0.1,0,0.3,0.1,0.4,0.1
	c0.1,0,0.3,0.1,0.4,0.1c0.3,0.1,0.5,0.2,0.8,0.4c0.2,0.1,0.4,0.3,0.6,0.5c0.1,0.1,0.1,0.1,0.2,0.2c0.1,0.1,0.1,0.1,0.1,0.2
	c0,0,0,0,0,0c0,0,0,0,0,0c0,0.1,0.1,0.1,0.1,0.2c0.1,0.2,0.2,0.3,0.3,0.5c0.1,0.2,0.1,0.5,0.2,0.7c0.1,1-0.2,2-0.8,2.8
	C193.4,58.1,193.3,58.2,193.2,58.3z"/>
<path class="st0" d="M192.8,42.4c0,0.9-0.3,1.8-0.9,2.4c-0.3,0.3-0.8,0.6-1.3,0.8c-0.2,0.1-0.5,0.1-0.7,0.2c-0.2,0-0.3,0.1-0.5,0.1
	c-0.1,0-0.3,0.1-0.4,0.1c-0.8,0.1-1.6,0.1-2.5,0c-1.2,0-1.9,0-2.4-0.1c-0.1,0-0.1,0-0.2-0.1c-0.1,0-0.2-0.1-0.2-0.1h0
	c-0.5-0.4-0.5-1.2-0.5-2.9v-0.3l0,0c0-0.3,0-0.8-0.1-1.2c0-0.1,0-0.3,0-0.4c0-0.3,0-0.7,0.1-1c0-0.1,0.1-0.2,0.1-0.3
	c0-0.1,0.1-0.2,0.2-0.2c0,0,0,0,0,0c0,0,0.1-0.1,0.1-0.1c0,0,0,0,0,0c0,0,0.1,0,0.1-0.1c0.1,0,0.1-0.1,0.2-0.1
	c0.1,0,0.2-0.1,0.3-0.1c0,0,0.1,0,0.1,0c0.1,0,0.2,0,0.3,0s0.3,0,0.4,0c0.2,0,0.4,0,0.5,0c0.4,0,0.8,0.1,1.2,0.1
	c1.3-0.1,2.6,0,3.9,0.4c0.2,0,0.4,0.1,0.5,0.2c0.1,0,0.2,0.1,0.2,0.1c0.1,0,0.2,0.1,0.2,0.1c0.1,0.1,0.2,0.2,0.3,0.2
	c0.1,0.1,0.1,0.1,0.2,0.2c0,0,0.1,0.1,0.1,0.1v0c0,0.1,0.1,0.1,0.1,0.2v0c0,0.1,0.1,0.1,0.1,0.2v0c0,0.1,0.1,0.1,0.1,0.2
	c0,0,0,0,0,0v0c0,0.1,0.1,0.1,0.1,0.2c0,0,0,0,0,0c0,0.1,0.1,0.2,0.1,0.2C192.8,41.9,192.8,42.2,192.8,42.4z"/>
<path class="st1" d="M213.2,34c0,10.2,0,20.4,0,30.6h0c0,0.8-0.3,1-1.1,1c-1.6,0-3.2-0.1-4.8,0c-1,0-1.2-0.3-1.2-1.3v-30
	c0-1,0.2-1.4,1.3-1.4c1.6,0.1,3.1,0,4.7,0C212.9,32.9,213.2,33.1,213.2,34z"/>
<path class="st1" d="M243,38.3c0,0.8-0.3,1.1-1,1.1h-6.9c-1,0-1.3,0.4-1.3,1.4v23.6c0,1-0.3,1.4-1.3,1.3c-1.5-0.1-3-0.1-4.6,0
	c-1,0.1-1.3-0.3-1.3-1.3V41.7c0-2.7,0.4-2.3-2.3-2.4h-5.8c-0.8,0-1.2-0.2-1.2-1.1c0.1-1.4,0-2.9,0-4.3c0-0.7,0.3-1,1-1h23.8
	c0.8,0,1,0.3,0.9,1C243,35.4,243,36.8,243,38.3z"/>
</svg>
