<?xml version="1.0" encoding="utf-8"?>
<!-- Generator: Adobe Illustrator 24.1.2, SVG Export Plug-In . SVG Version: 6.00 Build 0)  -->
<svg version="1.1" id="Layer_1" xmlns="http://www.w3.org/2000/svg" x="0px" y="0px"
     viewBox="0 0 103.3 100" style="enable-background:new 0 0 103.3 100;" xml:space="preserve">
<style type="text/css">
	.st0{fill:#224382;}
	.st1{fill:#FFFFFF;}
</style>
    <path class="st0" d="M101,0H2.3C1,0,0,1,0,2.3v95.3C0,99,1,100,2.3,100H101c1.3,0,2.3-1,2.3-2.3V2.3C103.3,1,102.3,0,101,0z
	 M71.9,14.7h2l6.5,16.5c1.6,4,3.3,8.3,4.5,12.2H85c-0.3-6-0.3-9.3-0.3-14.6V14.7h1.9v31.9h-2l-6.9-17.3c-1.6-3.8-2.9-7.7-4.1-11.6
	h-0.1c0.3,4.9,0.3,8.4,0.3,15.5v13.4h-1.9V14.7z M58,14.7h2l7.6,31.9h-2.1l-2.5-11H55l-2.6,11h-2L58,14.7z M25.3,65.7L25.3,65.7
	c-1.6,2.5-4.4,4-7.4,3.9c-0.6,0-1.2,0-1.8-0.1v13.8h-2V51.8c1.5-0.4,3-0.6,4.5-0.6c2.2-0.1,4.4,0.7,6,2.3c1.5,1.8,2.3,4.1,2.1,6.4
	C26.9,61.9,26.4,63.9,25.3,65.7z M28.2,46.6l-7.7-16.7l-2,3.3v13.4h-2V14.7h2v15.7h0.1c0.8-1.3,1.6-2.6,2.2-3.7l7-12h2.3l-8.2,13.5
	l8.5,18.5L28.2,46.6z M31.2,83.3V51.4h2v30.2h9.5l0,1.7H31.2z M37.8,32h-1.8v14.6H34V15.2c1.4-0.5,2.8-0.7,4.3-0.6
	c3,0,4.9,0.8,6.3,2.2c1.4,1.7,2.2,3.8,2.1,6c0,4.5-2.1,6.9-5.2,8.4v0.1c2.5,0.6,3.8,3,4.5,7.7c0.8,4.9,1.3,6.8,1.7,7.7h-2
	c-0.5-1-1-3.9-1.7-8C43.2,33.9,41.5,32,37.8,32z M60,83.3l-2.6-11h-7.9l-2.5,11h-2l7.5-31.9h1.9L62,83.3H60z M75.1,53.1h-6v30.1h-2
	V53.1h-6v-1.8h14V53.1z M91.1,53.1h-5.9v30.1h-2V53.1h-6v-1.8h14L91.1,53.1z"/>
    <path class="st1" d="M24.7,53.5c-1.6-1.6-3.8-2.4-6-2.3c-1.5,0-3.1,0.2-4.5,0.6v31.4h2V69.5c0.6,0.1,1.2,0.1,1.8,0.1
	c3,0.1,5.8-1.4,7.4-3.9l0,0c1.1-1.7,1.6-3.7,1.5-5.8C26.9,57.6,26.2,55.3,24.7,53.5z M17.8,67.8c-0.6,0-1.1,0-1.7-0.1V53.2
	c0.8-0.2,1.5-0.2,2.3-0.2c4.8,0,6.3,3.3,6.3,6.9C24.7,65.4,21.7,67.8,17.8,67.8z"/>
    <polygon class="st1" points="42.7,83.3 31.2,83.3 31.2,51.4 33.2,51.4 33.2,81.5 42.7,81.5 "/>
    <path class="st1" d="M54.5,51.4h-1.9L45,83.3h2l2.5-11h7.9l2.6,11h2L54.5,51.4z M49.9,70.5l2-9c0.5-2.4,1-4.7,1.4-7.3h0.2
	c0.4,2.5,0.9,4.8,1.4,7.3l2,9H49.9z"/>
    <polygon class="st1" points="75.1,51.4 75.1,53.1 69.1,53.1 69.1,83.3 67.1,83.3 67.1,53.1 61.1,53.1 61.1,51.4 "/>
    <polygon class="st1" points="91.1,51.4 91.1,53.1 85.2,53.1 85.2,83.3 83.2,83.3 83.2,53.1 77.2,53.1 77.2,51.4 "/>
    <path class="st1" d="M86.6,14.7v31.9h-2l-6.9-17.3c-1.6-3.8-2.9-7.7-4.1-11.6h-0.1c0.3,4.9,0.3,8.4,0.3,15.5v13.4h-1.9V14.7h2
	l6.5,16.5c1.6,4,3.3,8.3,4.5,12.2H85c-0.3-6-0.3-9.3-0.3-14.6V14.7H86.6z"/>
    <path class="st1" d="M60,14.7h-2l-7.6,31.9h2l2.6-11h7.9l2.5,11h2.1L60,14.7z M55.5,33.9l2-9c0.5-2.4,1-4.7,1.4-7.3H59
	c0.4,2.5,0.9,4.8,1.4,7.3l2,9H55.5z"/>
    <path class="st1" d="M46,38.9c-0.8-4.7-2.1-7.1-4.5-7.7v-0.1c3.2-1.5,5.2-3.9,5.2-8.4c0.1-2.2-0.6-4.3-2.1-6
	c-1.4-1.5-3.3-2.2-6.3-2.2c-1.5,0-2.9,0.2-4.3,0.6v31.4h2.1V32h1.8c3.7,0,5.4,1.9,6.2,6.6c0.7,4.1,1.3,7,1.7,8h2
	C47.3,45.7,46.8,43.8,46,38.9z M36.1,30.4V16.5c0.7-0.1,1.5-0.2,2.2-0.2c4.6,0,6.4,2.6,6.4,6.8c0,4.5-2.8,7.2-6.8,7.2H36.1z"/>
    <path class="st1" d="M30.4,46.6l-2.2,0l-7.7-16.7l-2,3.3v13.4h-2V14.7h2v15.7h0.1c0.8-1.3,1.6-2.6,2.2-3.7l7-12h2.3l-8.2,13.5
	L30.4,46.6z"/>
    <path class="st0" d="M24.7,59.9c0,5.4-3,7.8-6.9,7.8c-0.6,0-1.1,0-1.7-0.1V53.2c0.8-0.2,1.5-0.2,2.3-0.2
	C23.2,53,24.7,56.3,24.7,59.9z"/>
    <path class="st0" d="M56.9,70.5h-7l2-9c0.5-2.4,1-4.7,1.4-7.3h0.2c0.4,2.5,0.9,4.8,1.4,7.3L56.9,70.5z"/>
    <path class="st0" d="M62.5,33.9h-7l2-9c0.5-2.4,1-4.7,1.4-7.3H59c0.4,2.5,0.9,4.8,1.4,7.3L62.5,33.9z"/>
    <path class="st0" d="M44.6,23.1c0,4.5-2.8,7.2-6.8,7.2h-1.8V16.5c0.7-0.1,1.5-0.2,2.2-0.2C42.9,16.3,44.6,18.9,44.6,23.1z"/>
</svg>
