<?xml version="1.0" encoding="utf-8"?>
<!-- Generator: Adobe Illustrator 24.1.2, SVG Export Plug-In . SVG Version: 6.00 Build 0)  -->
<svg version="1.1" id="Layer_1" xmlns="http://www.w3.org/2000/svg" x="0px" y="0px"
     viewBox="0 0 132.4 100" style="enable-background:new 0 0 132.4 100;" xml:space="preserve">
<style type="text/css">
	.st0{fill:#9D9D9C;}
	.st1{fill:#278D39;}
	.st2{fill:#73BE3F;}
	.st3{fill:#EA0229;}
	.st4{fill:#BF1225;}
	.st5{fill:#F30029;}
	.st6{fill:#BE1325;}
	.st7{fill:#9F1924;}
	.st8{fill:#A11724;}
</style>
    <g>
	<path class="st0" d="M13.9,73.6c-0.6,0-1.2,0.1-1.7,0.4s-0.9,0.8-1.2,1.3c-0.4,0.6-0.6,1.3-0.7,2C10.1,78.1,10,79,10,79.9
		c0,1.1,0.1,2.3,0.4,3.3c0.2,0.8,0.7,1.5,1.3,2.1c0.6,0.5,1.4,0.7,2.2,0.7c0.6,0,1.3-0.1,1.9-0.3c0.7-0.2,1.3-0.4,2-0.7v3.2
		c-0.6,0.3-1.3,0.5-2,0.7c-0.8,0.2-1.5,0.2-2.3,0.2c-1.4,0-2.8-0.3-4-1.1c-1.1-0.8-2-1.9-2.4-3.2c-0.6-1.6-0.9-3.3-0.8-5
		c0-1.3,0.2-2.5,0.5-3.8c0.3-1.1,0.8-2.1,1.4-3c0.6-0.8,1.4-1.5,2.4-2s2.1-0.7,3.2-0.7c0.8,0,1.6,0.1,2.4,0.3
		c0.8,0.2,1.6,0.5,2.3,0.9l-1.1,3c-0.5-0.3-1.1-0.6-1.7-0.8C15.1,73.6,14.5,73.6,13.9,73.6z"/>
        <path class="st0" d="M31.4,74.8c1.3-0.1,2.7,0.4,3.7,1.2c0.9,1,1.4,2.3,1.3,3.7v9.2h-2.5L33.3,87h-0.1c-0.3,0.4-0.7,0.8-1.1,1.2
		c-0.4,0.3-0.8,0.6-1.3,0.7c-0.5,0.2-1.1,0.2-1.7,0.2c-0.7,0-1.4-0.2-2-0.5c-0.6-0.4-1-0.9-1.3-1.5c-0.3-0.7-0.5-1.5-0.4-2.3
		c-0.1-1.3,0.4-2.5,1.4-3.3c1.2-0.8,2.6-1.2,4-1.2l2.1-0.1v-0.6c0.1-0.6-0.1-1.2-0.4-1.7c-0.4-0.4-0.9-0.5-1.4-0.5
		c-0.6,0-1.1,0.1-1.6,0.3c-0.6,0.2-1.2,0.4-1.7,0.7L26.5,76c0.7-0.4,1.5-0.7,2.3-0.9C29.7,74.9,30.5,74.8,31.4,74.8z M32.8,82.5
		l-1.2,0.1c-0.7,0-1.5,0.2-2,0.6c-0.4,0.4-0.6,1-0.6,1.6c0,0.5,0.1,0.9,0.4,1.3c0.3,0.3,0.7,0.4,1.1,0.4c0.6,0,1.2-0.3,1.7-0.7
		c0.5-0.6,0.7-1.3,0.7-2L32.8,82.5z"/>
        <path class="st0" d="M43.3,75h3.8l2.1,7.3c0.1,0.3,0.1,0.6,0.2,0.8s0.1,0.6,0.2,0.8s0.1,0.6,0.1,0.8h0.1c0-0.4,0.1-0.8,0.2-1.2
		c0.1-0.4,0.2-0.8,0.3-1.3l2-7.3H56l-5,15.5c-0.3,0.9-0.7,1.8-1.2,2.6c-0.8,1.3-2.3,2-3.8,2c-0.3,0-0.7,0-1,0s-0.5-0.1-0.8-0.1v-3
		c0.2,0,0.4,0.1,0.6,0.1c0.2,0,0.4,0,0.7,0.1c0.4,0,0.8-0.1,1.1-0.3c0.3-0.2,0.6-0.5,0.8-0.8c0.2-0.4,0.4-0.9,0.6-1.4l0.2-0.8
		L43.3,75z"/>
        <path class="st0" d="M68.3,74.8c1.1,0,2.1,0.2,3,0.8c0.8,0.5,1.5,1.3,1.9,2.2c0.5,1.1,0.7,2.2,0.7,3.4V83H66c0,0.9,0.2,1.9,0.8,2.6
		c0.6,0.6,1.4,0.9,2.2,0.9c0.7,0,1.3-0.1,2-0.3c0.7-0.2,1.4-0.5,2-0.8v2.8c-0.6,0.3-1.3,0.6-2,0.7c-0.8,0.2-1.6,0.2-2.4,0.2
		c-1.2,0-2.4-0.2-3.4-0.8c-0.9-0.6-1.6-1.4-2.1-2.4c-0.5-1.2-0.8-2.5-0.7-3.9c0-1.4,0.2-2.7,0.7-4c0.4-1,1.1-1.9,2-2.4
		C66.1,75.1,67.2,74.8,68.3,74.8z M68.3,77.4c-0.6,0-1.2,0.3-1.6,0.7c-0.5,0.7-0.7,1.5-0.7,2.3h4.4c0-0.5-0.1-1.1-0.3-1.6
		c-0.1-0.4-0.4-0.8-0.7-1.1C69.1,77.6,68.7,77.4,68.3,77.4L68.3,77.4z"/>
        <path class="st0" d="M88.8,74.8c1.2-0.1,2.3,0.4,3.1,1.2c0.8,1.1,1.3,2.4,1.2,3.8v9.1h-3.6v-8.2c0-0.8-0.1-1.5-0.4-2.2
		c-0.3-0.5-0.8-0.8-1.4-0.8c-0.8-0.1-1.6,0.4-1.9,1.1c-0.4,1.1-0.6,2.3-0.5,3.4v6.6h-3.5V75h2.8l0.4,1.8h0.2
		c0.2-0.4,0.6-0.8,0.9-1.1c0.4-0.3,0.8-0.5,1.3-0.6C87.8,74.8,88.3,74.8,88.8,74.8z"/>
        <path class="st0" d="M108.8,74.8c1.2-0.1,2.3,0.4,3.1,1.2c0.9,1.1,1.3,2.4,1.2,3.8v9.1h-3.6v-8.2c0-0.8-0.1-1.5-0.4-2.2
		c-0.3-0.5-0.8-0.8-1.4-0.8c-0.8-0.1-1.6,0.4-1.9,1.1c-0.4,1.1-0.6,2.3-0.5,3.4v6.6h-3.5V75h2.8l0.4,1.8h0.2
		c0.2-0.4,0.6-0.8,0.9-1.1c0.4-0.3,0.8-0.5,1.3-0.7C107.8,74.8,108.3,74.8,108.8,74.8z"/>
        <path class="st0" d="M126.8,74.8c1.1,0,2.1,0.2,3,0.8c0.8,0.5,1.5,1.3,1.9,2.2c0.5,1.1,0.7,2.2,0.7,3.4V83h-7.8
		c0,0.9,0.3,1.9,0.8,2.6c0.6,0.6,1.4,0.9,2.2,0.9c0.7,0,1.3-0.1,2-0.3c0.7-0.2,1.4-0.5,2-0.8v2.8c-0.6,0.3-1.3,0.6-2,0.7
		c-0.8,0.2-1.6,0.2-2.4,0.2c-1.2,0-2.4-0.2-3.4-0.8c-0.9-0.6-1.7-1.4-2.1-2.4c-0.5-1.2-0.8-2.5-0.7-3.9c0-1.4,0.2-2.7,0.7-4
		c0.4-1,1.1-1.9,2-2.4C124.6,75,125.7,74.8,126.8,74.8z M126.8,77.4c-0.6,0-1.2,0.2-1.6,0.7c-0.5,0.7-0.7,1.5-0.7,2.3h4.4
		c0-0.5-0.1-1.1-0.3-1.6c-0.1-0.4-0.4-0.8-0.7-1.1C127.7,77.6,127.3,77.4,126.8,77.4L126.8,77.4z"/>
        <path class="st0" d="M56.5,99.9L55,95.6h1.2l0.7,2.4c0,0.2,0.1,0.3,0.1,0.5l0.1,0.5l0,0c0-0.1,0-0.3,0-0.4c0-0.2,0.1-0.3,0.1-0.5
		l0.7-2.4H59l-1.4,4.4L56.5,99.9z"/>
        <path class="st0" d="M60.2,93.8c0.2,0,0.3,0,0.4,0.1c0.2,0.3,0.2,0.6,0,0.9C60.5,95,60.3,95,60.2,95c-0.2,0-0.3,0-0.5-0.1
		c-0.2-0.3-0.2-0.6,0-0.9C59.8,93.9,60,93.8,60.2,93.8z M60.7,95.6v4.4h-1.1v-4.4H60.7z"/>
        <path class="st0" d="M64.4,98.6c0,0.3-0.1,0.5-0.2,0.8c-0.1,0.2-0.3,0.4-0.5,0.5c-0.3,0.1-0.6,0.2-0.9,0.2c-0.2,0-0.5,0-0.7-0.1
		c-0.2,0-0.4-0.1-0.6-0.2v-1c0.2,0.1,0.4,0.2,0.6,0.3c0.2,0.1,0.4,0.1,0.6,0.1c0.1,0,0.3,0,0.4-0.1c0.1-0.1,0.1-0.2,0.1-0.3
		c0-0.1,0-0.1,0-0.2c-0.1-0.1-0.1-0.1-0.2-0.2c-0.2-0.1-0.3-0.2-0.5-0.3c-0.2-0.1-0.4-0.2-0.6-0.3c-0.1-0.1-0.3-0.3-0.3-0.4
		c-0.1-0.2-0.1-0.4-0.1-0.6c0-0.4,0.1-0.7,0.4-0.9c0.3-0.2,0.7-0.3,1.1-0.3c0.2,0,0.5,0,0.7,0.1s0.5,0.1,0.7,0.3l-0.3,0.8
		c-0.2-0.1-0.3-0.2-0.5-0.2c-0.2-0.1-0.3-0.1-0.5-0.1c-0.1,0-0.2,0-0.3,0.1c-0.1,0-0.1,0.1-0.1,0.2s0,0.1,0.1,0.2s0.1,0.1,0.2,0.2
		c0.1,0.1,0.3,0.2,0.5,0.3c0.2,0.1,0.4,0.2,0.6,0.3c0.2,0.1,0.3,0.3,0.4,0.4C64.4,98.2,64.5,98.4,64.4,98.6z"/>
        <path class="st0" d="M68.8,95.6v4.4h-0.9l-0.1-0.6h-0.1c-0.1,0.1-0.2,0.3-0.3,0.4c-0.1,0.1-0.2,0.2-0.4,0.2c-0.2,0-0.3,0.1-0.5,0.1
		c-0.3,0-0.5-0.1-0.7-0.2s-0.4-0.3-0.5-0.5c-0.1-0.3-0.2-0.6-0.2-0.9v-2.8h1.1v2.5c0,0.2,0,0.5,0.1,0.7s0.2,0.3,0.4,0.2
		c0.2,0,0.3,0,0.5-0.2c0.1-0.1,0.2-0.3,0.2-0.5s0.1-0.5,0.1-0.8v-2.1h1.3V95.6z"/>
        <path class="st0" d="M71.4,95.5c0.4,0,0.8,0.1,1.2,0.4c0.3,0.3,0.4,0.7,0.4,1.1v2.9h-0.8L72,99.3l0,0c-0.1,0.1-0.2,0.3-0.3,0.4
		c-0.1,0.1-0.3,0.2-0.4,0.2c-0.2,0.1-0.4,0.1-0.5,0.1c-0.2,0-0.4-0.1-0.6-0.2s-0.3-0.3-0.4-0.5s-0.1-0.5-0.1-0.7
		c0-0.4,0.1-0.8,0.4-1c0.4-0.3,0.8-0.4,1.3-0.4h0.7V97c0-0.2,0-0.4-0.2-0.5c-0.1-0.1-0.3-0.2-0.4-0.2c-0.2,0-0.3,0-0.5,0.1
		s-0.4,0.1-0.6,0.2l-0.3-0.8c0.2-0.1,0.5-0.2,0.7-0.3C70.9,95.5,71.2,95.5,71.4,95.5z M71.9,97.9h-0.4c-0.2,0-0.5,0.1-0.6,0.2
		s-0.2,0.3-0.2,0.5c0,0.1,0,0.3,0.1,0.4s0.2,0.1,0.4,0.1c0.2,0,0.4-0.1,0.5-0.2c0.1-0.2,0.2-0.4,0.2-0.6V97.9z"/>
        <path class="st0" d="M75.2,99.9H74v-6.1h1.1L75.2,99.9z"/>
        <path class="st0" d="M79.5,100c-0.3,0-0.7-0.1-1-0.2c-0.3-0.2-0.5-0.4-0.6-0.7c-0.2-0.4-0.2-0.8-0.2-1.3c0-0.4,0.1-0.8,0.2-1.2
		c0.1-0.3,0.4-0.6,0.7-0.8c0.3-0.2,0.6-0.3,1-0.3c0.2,0,0.5,0,0.7,0.1s0.4,0.1,0.5,0.2l-0.3,0.9c-0.1-0.1-0.3-0.1-0.4-0.2
		c-0.1,0-0.3-0.1-0.4-0.1c-0.2,0-0.3,0-0.4,0.2c-0.1,0.1-0.2,0.3-0.3,0.4c-0.1,0.2-0.1,0.5-0.1,0.8c0,0.2,0,0.5,0.1,0.7
		c0,0.2,0.1,0.3,0.3,0.4c0.1,0.1,0.3,0.1,0.4,0.1c0.2,0,0.4,0,0.6-0.1s0.3-0.2,0.5-0.3v1c-0.2,0.1-0.3,0.2-0.5,0.2
		C80,100,79.8,100,79.5,100z"/>
        <path class="st0" d="M85.1,97.7c0,0.3,0,0.6-0.1,0.9s-0.2,0.5-0.4,0.7c-0.2,0.2-0.4,0.4-0.6,0.5c-0.3,0.1-0.5,0.2-0.8,0.2
		s-0.5,0-0.8-0.2c-0.2-0.1-0.4-0.3-0.6-0.5s-0.3-0.5-0.4-0.7c-0.1-0.3-0.1-0.6-0.1-0.9c0-0.4,0.1-0.8,0.2-1.2
		c0.1-0.3,0.3-0.6,0.6-0.8c0.3-0.2,0.6-0.3,1-0.3s0.7,0.1,1,0.3c0.3,0.2,0.5,0.4,0.7,0.8C85,96.9,85.1,97.3,85.1,97.7z M82.4,97.7
		c0,0.2,0,0.5,0.1,0.7c0,0.2,0.1,0.3,0.3,0.4c0.3,0.2,0.6,0.2,0.9,0c0.1-0.1,0.2-0.3,0.2-0.4c0.1-0.2,0.1-0.5,0.1-0.8
		c0-0.2,0-0.5-0.1-0.7c0-0.2-0.1-0.3-0.2-0.4s-0.3-0.1-0.4-0.1c-0.2,0-0.5,0.1-0.6,0.3C82.5,97,82.4,97.4,82.4,97.7L82.4,97.7z"/>
        <path class="st0" d="M90.5,95.5c0.4,0,0.7,0.1,1,0.4c0.2,0.3,0.4,0.8,0.3,1.2v2.9h-1.1v-2.6c0-0.2,0-0.5-0.1-0.7s-0.2-0.2-0.4-0.2
		c-0.2,0-0.5,0.1-0.6,0.3c-0.1,0.3-0.2,0.7-0.2,1v2.2h-1.1v-2.6c0-0.2,0-0.3-0.1-0.5c0-0.1-0.1-0.2-0.2-0.3
		c-0.1-0.1-0.2-0.1-0.3-0.1c-0.2,0-0.3,0.1-0.4,0.2s-0.2,0.3-0.2,0.5c0,0.3-0.1,0.5-0.1,0.8v2.1h-1.1v-4.4h0.9l0.1,0.6H87
		c0.1-0.1,0.2-0.3,0.3-0.3c0.1-0.1,0.3-0.2,0.4-0.2s0.3-0.1,0.5-0.1s0.5,0,0.7,0.2c0.2,0.1,0.3,0.3,0.4,0.5h0.1
		c0.1-0.2,0.3-0.4,0.5-0.5C90,95.5,90.2,95.5,90.5,95.5z"/>
        <path class="st0" d="M97.3,95.5c0.4,0,0.7,0.1,1,0.4c0.2,0.3,0.4,0.8,0.3,1.2v2.9h-1.1v-2.6c0-0.2,0-0.5-0.1-0.7s-0.2-0.2-0.4-0.2
		c-0.2,0-0.5,0.1-0.6,0.3c-0.1,0.3-0.2,0.7-0.2,1v2.2h-1.1v-2.6c0-0.2,0-0.4-0.1-0.5c0-0.1-0.1-0.2-0.2-0.3
		c-0.1-0.1-0.2-0.1-0.3-0.1c-0.2,0-0.3,0.1-0.4,0.2s-0.2,0.3-0.2,0.5c0,0.3-0.1,0.5-0.1,0.8v2.1h-1.1v-4.4h0.9l0.1,0.6h0.1
		c0.1-0.1,0.2-0.3,0.3-0.3c0.1-0.1,0.3-0.2,0.4-0.2s0.3-0.1,0.5-0.1s0.5,0.1,0.7,0.2s0.3,0.3,0.4,0.5h0.1c0.1-0.2,0.3-0.4,0.5-0.5
		C96.9,95.5,97.1,95.5,97.3,95.5z"/>
        <path class="st0" d="M103.2,95.6v4.4h-0.9l-0.1-0.6h-0.1c-0.1,0.1-0.2,0.3-0.3,0.4c-0.5,0.3-1.1,0.4-1.6,0.1
		c-0.2-0.1-0.4-0.3-0.5-0.5c-0.1-0.3-0.2-0.6-0.2-0.9v-2.8h1.1v2.5c0,0.2,0,0.5,0.1,0.7s0.2,0.2,0.4,0.2c0.2,0,0.4,0,0.5-0.2
		c0.1-0.1,0.2-0.3,0.2-0.5c0.1-0.2,0.1-0.5,0.1-0.8v-2.1h1.3V95.6z"/>
        <path class="st0" d="M106.5,95.5c0.4,0,0.7,0.1,1,0.4s0.4,0.8,0.4,1.2v2.9h-1.1v-2.6c0-0.2,0-0.5-0.1-0.7s-0.3-0.3-0.4-0.2
		c-0.3,0-0.5,0.1-0.6,0.3c-0.1,0.3-0.2,0.7-0.2,1.1v2.1h-1.1v-4.4h0.9l0.1,0.6h0.1c0.1-0.1,0.2-0.3,0.3-0.3c0.1-0.1,0.2-0.2,0.4-0.2
		C106.2,95.5,106.3,95.5,106.5,95.5z"/>
        <path class="st0" d="M109.4,93.8c0.2,0,0.3,0,0.4,0.1c0.2,0.3,0.2,0.6,0,0.9c-0.3,0.2-0.6,0.2-0.9,0c-0.2-0.3-0.2-0.6,0-0.9
		C109.1,93.9,109.3,93.8,109.4,93.8z M110,95.6v4.4h-1.1v-4.4H110z"/>
        <path class="st0" d="M112.7,100c-0.3,0-0.7-0.1-1-0.2c-0.3-0.2-0.5-0.4-0.7-0.8c-0.3-0.8-0.3-1.7,0-2.5c0.1-0.3,0.4-0.6,0.7-0.8
		c0.3-0.2,0.6-0.3,1-0.3c0.2,0,0.5,0,0.7,0.1s0.4,0.1,0.5,0.2l-0.3,0.9c-0.1-0.1-0.3-0.1-0.4-0.2c-0.1,0-0.3-0.1-0.4-0.1
		c-0.2,0-0.3,0-0.4,0.2c-0.1,0.1-0.2,0.3-0.3,0.4c-0.1,0.2-0.1,0.5-0.1,0.8c0,0.2,0,0.5,0.1,0.7c0,0.2,0.1,0.3,0.3,0.4
		c0.1,0.1,0.3,0.1,0.4,0.1c0.2,0,0.4,0,0.6-0.1s0.3-0.2,0.5-0.3v1c-0.2,0.1-0.3,0.2-0.5,0.2C113,100,112.9,100,112.7,100z"/>
        <path class="st0" d="M116.3,95.5c0.4,0,0.8,0.1,1.2,0.4c0.3,0.3,0.4,0.7,0.4,1.2v2.9h-0.8l-0.2-0.6l0,0c-0.1,0.1-0.2,0.3-0.3,0.4
		c-0.1,0.1-0.3,0.2-0.4,0.2c-0.2,0.1-0.4,0.1-0.5,0.1c-0.2,0-0.4-0.1-0.6-0.2s-0.3-0.3-0.4-0.5s-0.1-0.5-0.1-0.7
		c0-0.4,0.1-0.8,0.4-1c0.4-0.3,0.8-0.4,1.3-0.4h0.7V97c0-0.2,0-0.4-0.2-0.5c-0.1-0.1-0.3-0.2-0.4-0.2c-0.2,0-0.3,0-0.5,0.1
		s-0.4,0.1-0.6,0.2l-0.3-0.8c0.2-0.1,0.5-0.2,0.7-0.3C115.8,95.5,116,95.5,116.3,95.5z M116.8,97.9h-0.4c-0.2,0-0.5,0.1-0.6,0.2
		s-0.2,0.3-0.2,0.5c0,0.1,0,0.3,0.1,0.4s0.2,0.1,0.4,0.1c0.2,0,0.4-0.1,0.5-0.2c0.1-0.2,0.2-0.4,0.2-0.6V97.9z"/>
        <path class="st0" d="M120.5,99.1c0.1,0,0.2,0,0.3,0l0.3-0.1v0.9c-0.1,0.1-0.3,0.1-0.4,0.2c-0.2,0-0.4,0-0.5,0c-0.2,0-0.4,0-0.7-0.1
		c-0.2-0.1-0.3-0.3-0.4-0.4c-0.1-0.3-0.2-0.5-0.2-0.8v-2.1h-0.5v-0.5l0.6-0.3l0.3-0.9h0.7v0.9h1v0.9h-1v2.1c0,0.1,0,0.3,0.1,0.4
		C120.3,99,120.4,99.1,120.5,99.1z"/>
        <path class="st0" d="M122.4,93.8c0.2,0,0.3,0,0.4,0.1c0.2,0.3,0.2,0.6,0,0.9c-0.1,0.1-0.3,0.1-0.4,0.1c-0.2,0-0.3,0-0.4-0.1
		s-0.2-0.3-0.2-0.4c0-0.2,0.1-0.3,0.2-0.4S122.3,93.8,122.4,93.8z M123,95.6v4.4h-1.1v-4.4H123z"/>
        <path class="st0" d="M127.6,97.7c0,0.3,0,0.6-0.1,0.9s-0.2,0.5-0.3,0.7c-0.2,0.2-0.4,0.4-0.6,0.5c-0.3,0.1-0.5,0.2-0.8,0.2
		s-0.5,0-0.8-0.2c-0.2-0.1-0.4-0.3-0.6-0.5s-0.3-0.5-0.4-0.7c-0.1-0.3-0.1-0.6-0.1-0.9c0-0.4,0.1-0.8,0.2-1.2
		c0.1-0.3,0.4-0.6,0.6-0.8c0.3-0.2,0.6-0.3,1-0.3s0.7,0.1,1,0.3c0.3,0.2,0.5,0.4,0.7,0.8C127.5,96.9,127.6,97.3,127.6,97.7z
		 M124.9,97.7c0,0.2,0,0.5,0.1,0.7c0,0.2,0.1,0.3,0.2,0.4s0.3,0.2,0.4,0.2c0.2,0,0.3,0,0.4-0.2c0.1-0.1,0.2-0.3,0.2-0.4
		c0.1-0.2,0.1-0.5,0.1-0.8c0-0.2,0-0.5-0.1-0.7c0-0.2-0.1-0.3-0.3-0.4c-0.3-0.2-0.7-0.2-1,0.1c0,0,0,0,0,0.1
		C125,97,124.9,97.4,124.9,97.7L124.9,97.7z"/>
        <path class="st0" d="M130.6,95.5c0.4,0,0.7,0.1,1,0.4s0.4,0.8,0.4,1.2v2.9h-1.1v-2.6c0-0.2,0-0.5-0.1-0.7s-0.3-0.3-0.4-0.2
		c-0.3,0-0.5,0.1-0.6,0.3c-0.1,0.3-0.2,0.7-0.2,1.1v2.1h-1.1v-4.4h0.9l0.1,0.6h0.1c0.1-0.1,0.2-0.3,0.3-0.3c0.1-0.1,0.3-0.2,0.4-0.2
		C130.3,95.5,130.5,95.5,130.6,95.5z"/>
</g>
    <g>
	<polygon class="st1" points="120.8,14.6 108.9,29.6 119.1,35.4 132.3,0 	"/>
        <polygon class="st2" points="120.8,14.6 101.5,14.6 108.9,29.6 	"/>
        <polygon class="st3" points="72.8,40 80.8,50.2 108.9,29.6 	"/>
        <polygon class="st4" points="101.5,14.6 72.8,40 108.9,29.6 	"/>
        <polygon class="st5" points="0,47.6 43.3,60.5 36.4,50.2 	"/>
        <path class="st6" d="M36.4,50.2c0,0,44.4-0.3,44.4,0l-8-10.2L36.4,50.2z"/>
        <polygon class="st7" points="80.8,50.2 119.1,35.4 108.9,29.6 	"/>
        <path class="st8" d="M36.4,50.2l7,10.4l37.4-10.4C80.8,49.8,36.4,50.2,36.4,50.2z"/>
</g>
</svg>
