<?xml version="1.0" encoding="utf-8"?>
<!-- Generator: Adobe Illustrator 24.1.2, SVG Export Plug-In . SVG Version: 6.00 Build 0)  -->
<svg version="1.1" id="Layer_1" xmlns="http://www.w3.org/2000/svg" xmlns:xlink="http://www.w3.org/1999/xlink" x="0px" y="0px"
	 viewBox="0 0 124.7 100" style="enable-background:new 0 0 124.7 100;" xml:space="preserve">
<style type="text/css">
	.st0{fill:#FFFFFF;}
</style>
<path d="M0,0v100h124.7V0H0z M20.6,80.4h-4.7V34h4.7V80.4z M20.6,25.8h-4.7v-9.2h4.7V25.8z M48.6,80.4H29.1V19.3h4.7v56.5h14.8V80.4
	z M57.4,80.4h-4.7V19.3h4.7V80.4z M86.1,23.9H71.2v21.9h14.8v4.7H71.2v29.8h-4.7V19.3h19.5V23.9z M113.5,23.9h-9.8v56.5H99V23.9
	h-9.9v-4.7h24.3V23.9z"/>
<polygon class="st0" points="113.5,19.3 113.5,23.9 103.7,23.9 103.7,80.4 99,80.4 99,23.9 89.1,23.9 89.1,19.3 "/>
<polygon class="st0" points="71.2,23.9 71.2,45.9 86.1,45.9 86.1,50.6 71.2,50.6 71.2,80.4 66.5,80.4 66.5,19.3 86.1,19.3 
	86.1,23.9 "/>
<rect x="52.7" y="19.3" class="st0" width="4.7" height="61.2"/>
<polygon class="st0" points="48.6,75.7 48.6,80.4 29.1,80.4 29.1,19.3 33.8,19.3 33.8,75.7 "/>
<rect x="15.9" y="16.6" class="st0" width="4.7" height="9.2"/>
<rect x="15.9" y="34" class="st0" width="4.7" height="46.4"/>
</svg>
