<?xml version="1.0" encoding="utf-8"?>
<!-- Generator: Adobe Illustrator 24.1.2, SVG Export Plug-In . SVG Version: 6.00 Build 0)  -->
<svg version="1.1" id="Layer_1" xmlns="http://www.w3.org/2000/svg" xmlns:xlink="http://www.w3.org/1999/xlink" x="0px" y="0px"
	 viewBox="0 0 255.3 100" style="enable-background:new 0 0 255.3 100;" xml:space="preserve">
<style type="text/css">
	.st0{fill:#9D9D9C;}
	.st1{fill:url(#SVGID_1_);}
	.st2{fill:url(#SVGID_2_);}
	.st3{fill:url(#SVGID_3_);}
	.st4{fill:url(#SVGID_4_);}
</style>
<path class="st0" d="M140.6,68.1H135V55c-1.7,1.4-4.3,2.1-7.8,2.1c-2.7,0.2-5.3-1-7-3c-1.6-2-2.4-5.2-2.4-9.7
	c-0.1-2.3,0.2-4.5,0.8-6.7c0.4-1.6,1.2-3,2.4-4.1c1.1-1,2.3-1.7,3.7-2.1c1.7-0.4,3.5-0.6,5.2-0.6c2-0.1,4,0.4,5.7,1.4l0.1-0.9h4.9
	L140.6,68.1z M135,49.2V36.7c-1.4-0.7-3-1-4.6-1c-2.7,0-4.5,0.6-5.5,1.9s-1.5,3.4-1.5,6.5c0,2.9,0.4,4.9,1.3,6.2
	c0.8,1.3,2.3,1.9,4.4,1.9c1.8,0.1,3.6-0.3,5.2-1.3c0.3-0.2,0.5-0.5,0.6-0.8C135,49.9,135,49.5,135,49.2z"/>
<path class="st0" d="M172.3,56.5h-5.4l-0.1-2.1c-1,1-2.3,1.7-3.6,2c-1.5,0.5-3.2,0.7-4.8,0.7c-1.7,0.1-3.3-0.2-4.9-0.8
	c-1-0.5-1.8-1.4-2.2-2.4c-0.5-1.5-0.7-3.2-0.6-4.8V31.5h5.6v16.4c0,0.9,0.1,1.8,0.3,2.7c0.5,1.1,1.7,1.7,3.8,1.7
	c1.8,0,3.6-0.3,5.2-1c0.4-0.2,0.7-0.4,1-0.8c0.2-0.4,0.3-0.9,0.3-1.4V31.5h5.6L172.3,56.5z"/>
<path class="st0" d="M201.8,56.5h-5.3l-0.1-2c-1.7,1.7-4.1,2.5-7.1,2.5c-5.7,0-8.6-2.7-8.6-8.1c-0.1-2.4,1.1-4.6,3.1-5.9
	c1.7-1.1,4.4-1.6,7.9-1.6c1.5,0,3,0.1,4.6,0.2v-1.6c0-0.9-0.1-1.7-0.4-2.5c-0.5-1.2-2.1-1.8-4.9-1.8c-2.6,0-5.1,0.3-7.6,0.8
	l-0.6-4.7c2.9-0.7,6-1.1,9-1c4.2,0,7,0.7,8.3,2.1c1.2,1.3,1.8,3.4,1.8,6.5L201.8,56.5z M196.3,45.5c-1.4-0.1-2.8-0.2-4.1-0.2
	c-2.4,0-4.1,0.3-5.1,1c-0.7,0.6-1.2,1.5-1.1,2.5c-0.1,1,0.3,2.1,1,2.8c0.7,0.7,1.9,1,3.6,1c1.6,0.1,3.3-0.3,4.6-1.2
	c0.3-0.2,0.6-0.5,0.8-0.8c0.2-0.4,0.2-0.9,0.2-1.3L196.3,45.5z"/>
<path class="st0" d="M217.4,56.5h-5.5v-25h5.4l0.1,2.1c1-1,2.3-1.7,3.6-2c1.6-0.5,3.2-0.7,4.9-0.7c1.6-0.1,3.2,0.2,4.8,0.8
	c1,0.5,1.8,1.4,2.2,2.4c0.5,1.6,0.7,3.2,0.6,4.8v17.6h-5.6V40.2c0-0.9-0.1-1.8-0.3-2.7c-0.5-1.2-1.7-1.8-3.7-1.8
	c-1.8,0-3.5,0.4-5.1,1c-0.4,0.1-0.8,0.4-1.1,0.8c-0.2,0.4-0.3,0.9-0.3,1.4L217.4,56.5z"/>
<path class="st0" d="M255.3,56.6c-1.6,0.4-3.3,0.5-4.9,0.5c-2.6,0-4.3-0.7-5.3-2c-0.9-1.1-1.3-3.1-1.3-5.8V36.3h-3.5v-4.7h3.7
	c0-2.1,0.1-4.3,0.1-6.6h5.3v6.6h5.4v4.8h-5.4v11.5c-0.1,1.2,0.1,2.5,0.5,3.7c0.3,0.6,1.1,0.9,2.3,0.9c0.9,0,1.9-0.1,2.8-0.2
	L255.3,56.6z"/>
<path class="st0" d="M156.8,76.3c-0.5,0.2-1.1,0.3-1.7,0.3c-0.5,0-1-0.2-1.4-0.6c-0.3-0.6-0.5-1.2-0.4-1.9v-6.6h-1.4v-0.8h1.4
	c0-0.6,0-1.4,0-2.6h0.7v2.6h2.4v0.8h-2.4v6.6c0,0.5,0,0.9,0.2,1.3c0.2,0.3,0.5,0.4,1.1,0.4c0.4,0,0.8-0.1,1.3-0.2L156.8,76.3z"/>
<path class="st0" d="M160.2,71.7c-0.1,1.2,0.2,2.3,0.9,3.2c0.7,0.7,1.7,1,2.7,0.9c1.1,0,2.1-0.3,3.1-0.6l0.2,0.6
	c-1.1,0.5-2.2,0.7-3.4,0.7c-1.2,0.1-2.4-0.3-3.3-1.2c-0.8-1.1-1.1-2.5-1-3.8c0-3.3,1.4-5,4.2-5c1.1-0.1,2.1,0.3,2.9,1.1
	c0.6,1,0.9,2.1,0.8,3.3c0,0.3,0,0.5,0,0.8L160.2,71.7z M160.2,71h6.2c0-0.1,0-0.3,0-0.6c0.1-0.8-0.2-1.7-0.6-2.4
	c-0.6-0.6-1.4-0.9-2.3-0.8c-1-0.1-1.9,0.3-2.6,1C160.5,69.1,160.2,70,160.2,71L160.2,71z"/>
<path class="st0" d="M177.9,75.9c-1,0.4-2,0.7-3.1,0.7c-1.1,0.1-2.2-0.3-2.9-1.1c-0.8-1.1-1.1-2.4-1-3.8c-0.1-1.4,0.2-2.8,1-3.9
	c0.9-0.9,2.1-1.4,3.3-1.2c0.8,0,1.6,0.1,2.4,0.3l-0.2,0.8c-0.8-0.2-1.6-0.3-2.4-0.3c-0.5,0-1,0.1-1.5,0.3c-0.7,0.2-1.3,0.8-1.5,1.6
	c-0.1,0.4-0.2,0.7-0.3,1.1c0,0.4-0.1,0.8-0.1,1.3c0,0.5,0,0.9,0,1.3c0,0.4,0.1,0.8,0.2,1.2c0.1,0.4,0.3,0.7,0.5,1
	c0.2,0.3,0.5,0.5,0.9,0.7c0.4,0.2,0.9,0.3,1.3,0.3c1,0,2-0.2,3-0.6L177.9,75.9z"/>
<path class="st0" d="M182.5,76.3h-0.8V62.2h0.8v5.5c0.4-0.4,1-0.7,1.6-0.8c0.7-0.2,1.4-0.3,2.1-0.3c0.6,0,1.2,0.1,1.8,0.3
	c0.4,0.2,0.7,0.5,0.8,0.9c0.2,0.6,0.2,1.2,0.2,1.8v6.7h-0.8v-6.7c0-0.5,0-1-0.2-1.4c-0.1-0.3-0.3-0.5-0.6-0.7
	c-0.4-0.2-0.9-0.3-1.3-0.3c-1.1,0-2.2,0.2-3.1,0.8c-0.1,0.1-0.2,0.2-0.3,0.3c-0.1,0.1-0.1,0.3-0.1,0.4V76.3z"/>
<path class="st0" d="M194.9,76.3h-0.8v-9.5h0.8v0.9c0.4-0.4,1-0.7,1.6-0.8c0.7-0.2,1.4-0.3,2.1-0.3c0.6,0,1.2,0.1,1.8,0.3
	c0.4,0.2,0.7,0.5,0.8,0.9c0.2,0.6,0.2,1.2,0.2,1.8v6.7h-0.8v-6.6c0-0.5,0-1-0.2-1.4c-0.1-0.3-0.3-0.6-0.6-0.7
	c-0.4-0.2-0.9-0.3-1.3-0.3c-1.1-0.1-2.2,0.2-3.2,0.8c-0.1,0.1-0.2,0.2-0.3,0.3c-0.1,0.1-0.1,0.3-0.1,0.4V76.3z"/>
<path class="st0" d="M214,71.4c0,1.1-0.1,2.1-0.5,3.2c-0.2,0.7-0.7,1.2-1.3,1.5c-0.7,0.3-1.6,0.4-2.4,0.4c-0.6,0-1.2-0.1-1.8-0.2
	c-0.5-0.1-0.9-0.4-1.3-0.8c-0.4-0.4-0.7-1-0.8-1.6c-0.2-0.8-0.3-1.7-0.3-2.5c0-0.8,0.1-1.7,0.3-2.5c0.1-0.6,0.4-1.1,0.9-1.5
	c0.4-0.3,0.8-0.6,1.3-0.7c0.5-0.1,1.1-0.2,1.7-0.2c0.6,0,1.2,0,1.8,0.2c0.5,0.1,0.9,0.3,1.3,0.7c0.4,0.4,0.7,0.9,0.9,1.5
	C213.9,69.7,214,70.6,214,71.4z M213.2,71.5c0-0.7,0-1.5-0.2-2.2c-0.1-0.5-0.3-0.9-0.6-1.3c-0.3-0.3-0.6-0.5-1-0.6
	c-0.5-0.1-1.1-0.2-1.6-0.2c-0.5,0-1,0-1.4,0.2c-0.4,0.1-0.7,0.3-1,0.6c-0.3,0.4-0.5,0.8-0.6,1.3c-0.2,0.7-0.2,1.4-0.2,2.2
	c0,0.8,0,1.5,0.2,2.3c0.1,0.5,0.3,1,0.6,1.3c0.3,0.3,0.6,0.5,1,0.6c0.5,0.1,1,0.2,1.5,0.2c0.5,0,0.9,0,1.4-0.1
	c0.4-0.1,0.7-0.3,1-0.6c0.4-0.4,0.6-0.8,0.7-1.3C213.1,73.1,213.2,72.3,213.2,71.5L213.2,71.5z"/>
<path class="st0" d="M219.2,76.3h-0.8V62.2h0.8V76.3z"/>
<path class="st0" d="M231.9,71.4c0,1.1-0.1,2.1-0.5,3.2c-0.2,0.7-0.7,1.2-1.3,1.5c-0.7,0.3-1.5,0.4-2.4,0.4c-0.6,0-1.2-0.1-1.8-0.2
	c-0.5-0.1-0.9-0.4-1.3-0.8c-0.4-0.4-0.7-1-0.8-1.6c-0.2-0.8-0.3-1.7-0.3-2.5c0-0.9,0.1-1.7,0.3-2.5c0.1-0.6,0.5-1.1,0.9-1.5
	c0.4-0.3,0.8-0.6,1.3-0.7c0.5-0.1,1.1-0.2,1.7-0.2c0.6,0,1.2,0,1.8,0.2c0.5,0.1,0.9,0.3,1.3,0.7c0.4,0.4,0.7,0.9,0.9,1.5
	C231.8,69.7,231.9,70.6,231.9,71.4z M231.1,71.5c0-0.7,0-1.5-0.2-2.2c-0.1-0.5-0.3-0.9-0.6-1.3c-0.3-0.3-0.6-0.5-1-0.6
	c-0.5-0.1-1-0.2-1.6-0.2c-0.5,0-1,0-1.4,0.2c-0.4,0.1-0.7,0.3-1,0.6c-0.3,0.4-0.6,0.8-0.6,1.3c-0.1,0.7-0.2,1.4-0.2,2.2
	c0,0.8,0.1,1.5,0.2,2.3c0.1,0.5,0.3,1,0.7,1.3c0.3,0.3,0.6,0.5,1,0.6c0.5,0.1,1,0.2,1.5,0.2c0.5,0,0.9,0,1.4-0.1
	c0.4-0.1,0.7-0.3,1-0.6c0.4-0.4,0.6-0.8,0.7-1.3C231,73.1,231.1,72.3,231.1,71.5z"/>
<path class="st0" d="M236.7,75.9c-0.8-0.2-1.4-0.9-1.3-1.8c-0.1-0.9,0.4-1.7,1.2-2c-0.2-0.3-0.4-0.6-0.5-0.9
	c-0.1-0.5-0.2-0.9-0.2-1.4c-0.1-1,0.3-1.9,1-2.5c0.8-0.5,1.7-0.8,2.6-0.8c0.6,0,1.2,0.1,1.7,0.2h2.8v0.8h-1.8
	c0.5,0.6,0.8,1.4,0.7,2.3c0,2.2-1.2,3.3-3.5,3.3c-0.6,0-1.2-0.1-1.8-0.3c-0.2-0.1-0.4-0.2-0.6-0.2c-0.2,0-0.4,0.1-0.5,0.3
	c-0.2,0.3-0.3,0.6-0.3,1c-0.1,0.5,0.1,0.9,0.5,1.2c1,0.2,2.1,0.3,3.1,0.2c1.1-0.1,2.2,0.1,3.3,0.5c0.6,0.3,0.9,1,0.9,2.2
	c0.1,0.9-0.3,1.8-1.1,2.3c-1.1,0.6-2.3,0.8-3.6,0.7c-0.7,0-1.4-0.1-2.1-0.2c-0.5-0.1-0.9-0.3-1.2-0.6c-0.3-0.2-0.5-0.5-0.6-0.9
	c-0.1-0.4-0.2-0.7-0.1-1.1C235.3,77.2,235.9,76.3,236.7,75.9z M243.2,78c0.1-0.6-0.2-1.2-0.6-1.5c-0.7-0.4-1.6-0.5-2.4-0.4h-1.7
	c-0.3,0-0.7,0-1,0.1c-0.9,0.2-1.5,1.1-1.3,2c0,0.6,0.2,1.2,0.8,1.6c0.8,0.4,1.7,0.6,2.6,0.5c1,0.1,2-0.1,2.9-0.6
	C242.9,79.3,243.2,78.7,243.2,78L243.2,78z M242.2,69.8c0.1-0.7-0.2-1.5-0.7-2c-0.6-0.4-1.3-0.6-2.1-0.6c-1.8,0-2.7,0.8-2.7,2.5
	c-0.1,0.8,0.2,1.5,0.7,2.1c0.6,0.4,1.3,0.6,2,0.5c0.7,0,1.4-0.2,2-0.6C242,71.3,242.3,70.6,242.2,69.8L242.2,69.8z"/>
<path class="st0" d="M246.1,80.9l0.1-0.7c0.3,0.1,0.6,0.1,0.9,0.1c0.4,0,0.7-0.1,1-0.3c0.4-0.4,0.7-1,0.9-1.5l1-2.4l-3.7-9.3h0.9
	l3.2,8.3l3.3-8.3h0.9l-4.9,12c-0.2,0.6-0.6,1.2-1,1.7c-0.5,0.4-1.1,0.6-1.7,0.6C246.7,81,246.4,80.9,246.1,80.9z"/>
<linearGradient id="SVGID_1_" gradientUnits="userSpaceOnUse" x1="5.1025" y1="92.9503" x2="14.4525" y2="14.5603" gradientTransform="matrix(1 0 0 -1 0 102)">
	<stop  offset="0" style="stop-color:#DD4624"/>
	<stop  offset="1" style="stop-color:#8E240D"/>
</linearGradient>
<path class="st1" d="M23.6,41.5v26.7L0,91.1V7.3C14.2,12.7,23.6,26.3,23.6,41.5z"/>
<linearGradient id="SVGID_2_" gradientUnits="userSpaceOnUse" x1="6.1903" y1="25.9219" x2="96.7303" y2="10.1819" gradientTransform="matrix(1 0 0 -1 0 102)">
	<stop  offset="0" style="stop-color:#DD4624"/>
	<stop  offset="1" style="stop-color:#8E240D"/>
</linearGradient>
<path class="st2" d="M94.6,100H63.2l-6.1-8.9H0l23.6-22.9H53C67.2,69.3,84.5,85.1,94.6,100z"/>
<linearGradient id="SVGID_3_" gradientUnits="userSpaceOnUse" x1="83.3511" y1="85.63" x2="85.5311" y2="25.94" gradientTransform="matrix(1 0 0 -1 0 102)">
	<stop  offset="0" style="stop-color:#DD4624"/>
	<stop  offset="1" style="stop-color:#8E240D"/>
</linearGradient>
<path class="st3" d="M94.6,0v83.4c-13.1-5.8-21.6-18.7-21.7-33V23L94.6,0z"/>
<linearGradient id="SVGID_4_" gradientUnits="userSpaceOnUse" x1="11.72" y1="92.3414" x2="103.67" y2="89.3814" gradientTransform="matrix(1 0 0 -1 0 102)">
	<stop  offset="0" style="stop-color:#DD4624"/>
	<stop  offset="1" style="stop-color:#8E240D"/>
</linearGradient>
<path class="st4" d="M94.6,0L72.8,23h-29C28.8,22.9,15.5,13.8,9.9,0H94.6z"/>
</svg>
